<svg width="200" height="200" xmlns="http://www.w3.org/2000/svg">

 <g>
  <title>background</title>
  <rect fill="none" id="canvas_background" height="202" width="202" y="-1" x="-1"/>
 </g>
 <g>
  <title>Layer 1</title>
  <g stroke="null" id="svgg">
   <path fill-rule="evenodd" fill="#ffffff" d="m95.840045,30.78471c-0.208467,0.051133 -0.496091,0.175525 -0.639166,0.276317c-0.143075,0.100792 -0.437091,0.274842 -0.653425,0.38645c-0.216333,0.111608 -0.703083,0.493141 -1.081666,0.847633c-0.378583,0.354491 -0.719308,0.644575 -0.757166,0.645558c-0.037858,0.000492 -0.5664,0.499041 -1.175083,1.107233c-0.608683,0.608191 -1.205074,1.173608 -1.325533,1.256208c-0.120458,0.082108 -0.698166,0.613108 -1.283249,1.179999c-0.585083,0.5664 -1.218841,1.144108 -1.408133,1.283741c-0.189292,0.139633 -0.963666,0.857958 -1.720832,1.596933c-0.757166,0.738483 -1.412558,1.343724 -1.456316,1.344216c-0.043758,0.000492 -0.61065,0.531983 -1.259649,1.180983c-0.649491,0.649 -1.216874,1.179999 -1.260633,1.179999c-0.04425,0 -0.591475,0.508875 -1.216383,1.130833c-0.624416,0.621958 -1.172133,1.131816 -1.216383,1.132799c-0.04425,0.001475 -0.191258,0.088992 -0.326467,0.1947c-0.301883,0.236 -0.938591,0.254192 -2.029599,0.057033c-0.56935,-0.102758 -2.534049,-0.16815 -7.459563,-0.249767c-4.341906,-0.071783 -6.910863,-0.151925 -7.32583,-0.229117c-1.880624,-0.349575 -6.10748,-0.03245 -6.888247,0.517233c-0.137667,0.096858 -0.470033,0.287133 -0.737991,0.423325c-0.475933,0.240917 -2.305424,1.915532 -2.305424,2.110232c0,0.053592 -0.175033,0.355966 -0.3894,0.671616c-0.214367,0.31565 -0.4366,0.793058 -0.494125,1.061508c-0.057525,0.267958 -0.187817,0.67555 -0.2891,0.905158c-0.2006,0.453808 -0.356458,1.559566 -0.450858,3.202223c-0.064408,1.126408 -0.15635,1.808349 -0.389891,2.888049c-0.082108,0.378583 -0.234525,1.728207 -0.33925,2.999165c-0.104725,1.270958 -0.304342,2.950982 -0.443975,3.733223c-0.157333,0.880575 -0.293033,2.150057 -0.35695,3.33399c-0.060967,1.135258 -0.160283,2.075816 -0.243375,2.314274c-0.077192,0.221742 -0.140617,0.549191 -0.1416,0.728158c-0.000983,0.179458 -0.072767,0.543783 -0.159792,0.810266c-0.1593,0.486258 -0.222233,0.5487 -1.454349,1.445991c-0.167658,0.122425 -0.349083,0.28025 -0.403166,0.351541c-0.054083,0.071292 -0.341708,0.292542 -0.639166,0.49265c-1.043808,0.700625 -1.231133,0.8378 -1.474999,1.077241c-0.135208,0.133242 -0.356458,0.296967 -0.491666,0.364325c-0.135208,0.067358 -0.356458,0.231083 -0.491666,0.363833c-0.313192,0.307292 -1.571858,1.209499 -1.687891,1.209499c-0.083583,0 -0.340725,0.219775 -1.146074,0.980875c-0.199125,0.187817 -0.568366,0.475441 -0.820591,0.639166c-1.026108,0.665225 -1.317174,0.878116 -1.440583,1.051674c-0.071292,0.1003 -0.301883,0.270417 -0.5133,0.378091c-0.210925,0.107675 -0.429225,0.281233 -0.484783,0.385466c-0.05605,0.104233 -0.201092,0.22125 -0.322533,0.260092c-0.121442,0.03835 -0.457741,0.26255 -0.746841,0.498058c-0.2891,0.235508 -0.556566,0.428241 -0.594425,0.428241c-0.037858,0 -0.226167,0.144058 -0.4189,0.319583c-0.370716,0.338267 -0.757166,0.632775 -1.952407,1.487291c-1.309799,0.937116 -2.703182,2.293132 -2.787257,2.713015c-0.0295,0.148975 -0.175033,0.414475 -0.322533,0.590491c-1.052658,1.250799 -1.004966,5.831164 0.073258,7.061805c0.155858,0.177492 0.2832,0.402183 0.2832,0.499041c0,0.096858 0.11505,0.2832 0.255667,0.414475c0.140617,0.131275 0.358425,0.440533 0.4838,0.68735c0.125867,0.246325 0.301883,0.509366 0.391366,0.583608c0.089483,0.074242 0.266483,0.339742 0.393333,0.59c0.12685,0.250258 0.293525,0.506908 0.370716,0.570825c0.0767,0.063917 0.221742,0.304833 0.322533,0.534933c0.1003,0.2301 0.317125,0.579675 0.482325,0.777325c0.295,0.353016 0.603766,0.81125 1.184424,1.756232c0.16225,0.264025 0.548208,0.85255 0.857958,1.307833c0.309258,0.455283 0.604258,0.937608 0.655391,1.071833c0.051133,0.134225 0.17405,0.322042 0.272875,0.417916c0.099317,0.095875 0.291067,0.365308 0.426275,0.59885c0.422833,0.730616 0.822066,1.320124 1.204583,1.777866c0.202567,0.242883 0.36875,0.490191 0.36875,0.549191c0,0.059492 0.104233,0.24485 0.231575,0.412016c0.127342,0.167658 0.331383,0.503466 0.453808,0.746841c0.121933,0.243375 0.3068,0.535425 0.410541,0.649c0.169625,0.185358 0.546733,0.747825 1.040366,1.552191c0.095875,0.15635 0.31565,0.473966 0.488225,0.706033c0.6136,0.826 0.641133,1.948966 0.087517,3.547373c-0.128817,0.371208 -0.302867,1.147058 -0.386941,1.724274c-0.084567,0.578691 -0.265008,1.316191 -0.403166,1.644133c-0.137667,0.326958 -0.321058,1.071341 -0.4071,1.654458c-0.086533,0.583116 -0.258617,1.303408 -0.382516,1.600866c-0.1239,0.297458 -0.256158,0.739958 -0.294017,0.983333c-0.148483,0.9558 -0.362358,1.935199 -0.500025,2.292149c-0.07965,0.206008 -0.21535,0.825508 -0.301883,1.376666c-0.086042,0.551158 -0.264025,1.267516 -0.394316,1.591524c-0.130783,0.324008 -0.326467,1.098383 -0.434633,1.720832c-0.108167,0.62245 -0.294508,1.418949 -0.413983,1.770491c-0.518708,1.526624 -0.001475,5.311472 0.828458,6.060772c0.111608,0.100792 0.295983,0.38055 0.409558,0.621958c0.28025,0.5959 1.191799,1.483849 1.922907,1.873741c0.331383,0.176508 0.602291,0.355475 0.602291,0.397758c0,0.089975 0.765525,0.342691 1.324549,0.437091c0.214858,0.035892 0.568858,0.167658 0.786666,0.29205c0.217808,0.124883 0.750283,0.301883 1.182949,0.394316c0.432666,0.092433 0.969566,0.247308 1.193766,0.344658c0.223708,0.09735 0.726191,0.249275 1.116083,0.338267c0.390383,0.0885 0.914991,0.2655 1.166724,0.392841c0.251242,0.127342 0.810758,0.298933 1.243424,0.381041c0.437583,0.083092 1.041841,0.284183 1.361916,0.453316c0.316633,0.167167 0.701608,0.30385 0.8555,0.30385c0.498058,0 1.312258,0.214858 1.725749,0.455283c0.22125,0.128817 0.66375,0.282217 0.983333,0.341217c0.319092,0.058508 0.956291,0.252225 1.415999,0.429716c0.459708,0.177 1.012833,0.354 1.229166,0.392841c0.216333,0.038842 0.649491,0.178475 0.963175,0.310733c0.313192,0.131767 0.910566,0.30975 1.327499,0.395791c0.416441,0.08555 0.957766,0.25665 1.201633,0.380058c0.244358,0.123408 0.630808,0.274842 0.85845,0.335808c0.240425,0.0649 0.487241,0.214858 0.588525,0.357441c0.095875,0.1357 0.289592,0.397758 0.4307,0.583116c0.141108,0.185358 0.312208,0.535425 0.380058,0.778308c0.06785,0.242883 0.205025,0.515266 0.304833,0.605241c0.099317,0.089975 0.295983,0.465116 0.4366,0.833866c0.141108,0.368258 0.317617,0.720291 0.39235,0.782733c0.074733,0.06195 0.210433,0.341708 0.301392,0.621466c0.090958,0.279758 0.273367,0.653916 0.405625,0.830916c0.132258,0.177 0.308767,0.531 0.392841,0.786666c0.083583,0.255667 0.272875,0.6195 0.419883,0.808791c0.147008,0.189292 0.346625,0.587541 0.442991,0.885c0.096367,0.297458 0.252717,0.629333 0.346625,0.7375c0.0944,0.108167 0.251242,0.417916 0.348591,0.688333c0.09735,0.270417 0.258125,0.583116 0.357441,0.694725c0.099317,0.1121 0.291067,0.485275 0.425783,0.829441c0.134717,0.344166 0.328925,0.717341 0.431191,0.829441c0.102267,0.111608 0.256158,0.449875 0.3422,0.751266c0.086042,0.301392 0.243867,0.627366 0.35105,0.724225c0.107183,0.09735 0.268942,0.403658 0.358916,0.68145c0.089975,0.2773 0.267958,0.644083 0.394808,0.8142c0.127342,0.170608 0.3245,0.546733 0.438075,0.835833c0.113575,0.289592 0.269433,0.595408 0.345641,0.680466c0.0767,0.085058 0.228625,0.414475 0.338267,0.732583c0.10915,0.318108 0.281725,0.669158 0.383008,0.779783c0.101283,0.111117 0.298933,0.422833 0.439058,0.69325c0.457741,0.884016 2.258224,2.507499 2.780374,2.507499c0.076208,0 0.413983,0.144058 0.750775,0.319583l0.611633,0.319583l1.974041,0.031467c1.813757,0.029008 2.020749,0.01475 2.556665,-0.177983c0.320567,-0.115542 0.95875,-0.333842 1.418458,-0.484783c0.459708,-0.151433 0.999066,-0.385958 1.198191,-0.521166c0.199617,-0.1357 0.54575,-0.275333 0.769458,-0.311225c0.2242,-0.035892 0.668666,-0.197158 0.988741,-0.358425c0.319583,-0.161758 0.799941,-0.340725 1.067408,-0.397758c0.267467,-0.057525 0.677025,-0.229608 0.910566,-0.383008c0.233542,-0.152908 0.700625,-0.3481 1.037908,-0.433158c0.337283,-0.085058 0.779783,-0.263042 0.983333,-0.394808c0.20355,-0.132258 0.650966,-0.310242 0.994641,-0.396283c0.343183,-0.086042 0.730616,-0.240425 0.8614,-0.342691c0.130292,-0.102758 0.46905,-0.240425 0.75225,-0.305325c0.283692,-0.065392 0.741925,-0.243867 1.018241,-0.396283c0.276808,-0.152908 0.763558,-0.351541 1.081666,-0.441516c0.3186,-0.090467 0.735041,-0.269433 0.925808,-0.398741c0.191258,-0.128817 0.567383,-0.276317 0.835833,-0.32745c0.605241,-0.115542 0.814691,-0.190767 1.127883,-0.406116c0.135208,-0.092925 0.5487,-0.260092 0.919416,-0.370716c0.370225,-0.111117 0.841241,-0.318108 1.046266,-0.4602c0.688333,-0.476916 2.004524,-0.456758 2.769065,0.042283c0.235017,0.1534 0.69325,0.354 1.01775,0.444958c0.3245,0.09145 0.7552,0.278775 0.957275,0.416933c0.202075,0.138158 0.576725,0.290083 0.8319,0.337775c0.255667,0.047692 0.627858,0.200108 0.827966,0.338758c0.199617,0.13865 0.621958,0.318108 0.9381,0.399233c0.316142,0.081617 0.729633,0.253208 0.918925,0.382516c0.189292,0.129308 0.641133,0.326467 1.003983,0.438075c0.362358,0.1121 0.687841,0.249275 0.722258,0.305325c0.075717,0.121933 0.413983,0.2596 1.076258,0.4366c0.270417,0.072275 0.79355,0.2891 1.162791,0.481833c0.36875,0.193225 0.733075,0.35105 0.809775,0.35105c0.076208,0 0.4307,0.154875 0.78765,0.344166c0.356458,0.189292 0.714883,0.344166 0.795516,0.344166c0.081125,0 0.46905,0.154875 0.862875,0.344166c0.393333,0.189292 0.7552,0.344658 0.803383,0.344658c0.279758,0.001967 0.859925,0.237475 1.075274,0.437091c0.146517,0.1357 0.535916,0.301392 0.941541,0.4012c0.406608,0.099317 0.815675,0.273858 0.993658,0.423816c0.616058,0.518216 4.839964,0.576725 5.743647,0.079158c0.155367,-0.08555 0.481341,-0.248292 0.724716,-0.361866c0.243375,-0.113083 0.5487,-0.258617 0.678991,-0.322533c0.45725,-0.225183 2.018782,-1.877182 2.159399,-2.284774c0.07375,-0.213383 0.25665,-0.521166 0.406116,-0.683416c0.149958,-0.16225 0.326958,-0.472 0.394316,-0.688333c0.067358,-0.216333 0.221742,-0.526575 0.343183,-0.689808c0.121442,-0.162742 0.319092,-0.524608 0.43955,-0.803875c0.119967,-0.279758 0.3009,-0.583116 0.402183,-0.674566c0.101283,-0.09145 0.234525,-0.326958 0.296475,-0.523133c0.06195,-0.196175 0.246325,-0.527558 0.409558,-0.735533c0.163725,-0.208467 0.358425,-0.582133 0.433158,-0.830916c0.074733,-0.248292 0.221742,-0.543291 0.326958,-0.6549c0.104725,-0.111608 0.287625,-0.423816 0.406116,-0.69325c0.118492,-0.269925 0.298933,-0.597866 0.4012,-0.72865c0.101775,-0.131275 0.274842,-0.440533 0.383991,-0.68735c0.10915,-0.246817 0.2773,-0.537883 0.373666,-0.647033c0.096858,-0.108658 0.255175,-0.4189 0.352525,-0.689316c0.09735,-0.270417 0.278283,-0.602291 0.402183,-0.7375c0.1239,-0.135208 0.31565,-0.485275 0.425783,-0.777325c0.110625,-0.292542 0.307783,-0.646541 0.438566,-0.786666c0.130292,-0.140617 0.289592,-0.418408 0.353016,-0.618025c0.063917,-0.199125 0.201583,-0.471016 0.306308,-0.604258c0.104233,-0.13275 0.279758,-0.45135 0.3894,-0.707016c0.109642,-0.256158 0.305325,-0.591475 0.435125,-0.745366c0.129308,-0.153892 0.288608,-0.446925 0.354,-0.650966c0.0649,-0.204042 0.243375,-0.503958 0.396283,-0.666208c0.152417,-0.16225 0.319583,-0.482816 0.370716,-0.712425c0.08555,-0.383008 0.375633,-0.822066 0.9027,-1.366833c0.112592,-0.116525 0.366783,-0.2419 0.565416,-0.279267c0.198633,-0.037367 0.53985,-0.170117 0.757658,-0.295c0.217808,-0.125375 0.724225,-0.3009 1.124933,-0.389891c0.4012,-0.088992 0.918925,-0.248783 1.150991,-0.354491c0.232067,-0.105708 0.738483,-0.258617 1.124441,-0.339742c0.38645,-0.081125 0.9971,-0.274842 1.356999,-0.4307c0.359408,-0.155367 0.895325,-0.338267 1.190324,-0.4071c0.295492,-0.068833 0.804366,-0.248783 1.130833,-0.400708c0.326958,-0.151925 0.865825,-0.319092 1.198191,-0.371208c0.331875,-0.052608 0.823541,-0.206992 1.091991,-0.343183c0.268942,-0.136192 0.771916,-0.313683 1.117558,-0.393825c0.345641,-0.080142 0.960225,-0.276808 1.365849,-0.4366c0.405625,-0.160283 0.950391,-0.32155 1.210483,-0.358425c0.260092,-0.036875 0.739958,-0.193225 1.066424,-0.347608c0.326467,-0.154383 0.895325,-0.331875 1.263583,-0.393825c0.4189,-0.0708 0.792566,-0.204042 0.998083,-0.355966c0.180933,-0.133242 0.558041,-0.309258 0.8378,-0.390383c0.279758,-0.081617 0.655883,-0.254683 0.835833,-0.384975c0.17995,-0.130292 0.475441,-0.304833 0.656866,-0.387925c0.591966,-0.270908 1.795566,-1.311274 2.095482,-1.811299c0.117508,-0.196175 0.313683,-0.44545 0.435125,-0.553616c0.207483,-0.184375 0.505925,-0.813708 0.933183,-1.966666c0.345641,-0.9322 0.2065,-3.772065 -0.246817,-5.047448c-0.083092,-0.234033 -0.238458,-1.031024 -0.34515,-1.770491c-0.106692,-0.739466 -0.264517,-1.543341 -0.350558,-1.786716c-0.231083,-0.652933 -0.335808,-1.179016 -0.44545,-2.241999c-0.054083,-0.524116 -0.167167,-1.196716 -0.25075,-1.494174c-0.292542,-1.036433 -0.332858,-1.237033 -0.491175,-2.458332c-0.087517,-0.676041 -0.265008,-1.534491 -0.394808,-1.908157c-0.129308,-0.373666 -0.306308,-1.236541 -0.393333,-1.917499c-0.087025,-0.683908 -0.267958,-1.546783 -0.403658,-1.926841c-0.169625,-0.47495 -0.261075,-0.977925 -0.295492,-1.622499l-0.049658,-0.934166l0.403658,-0.59c0.221742,-0.3245 0.403166,-0.635233 0.403658,-0.6903c0,-0.055558 0.130292,-0.258617 0.289592,-0.451841c0.158808,-0.193225 0.403166,-0.590491 0.541816,-0.882541c0.139142,-0.292542 0.352033,-0.678008 0.472983,-0.856483c0.628841,-0.927775 0.8614,-1.309799 1.001525,-1.645608c0.084567,-0.203058 0.261567,-0.468558 0.39235,-0.589508c0.131275,-0.121442 0.285167,-0.395791 0.342691,-0.609666c0.058017,-0.213875 0.198633,-0.472983 0.3127,-0.576233c0.114558,-0.10325 0.337283,-0.431191 0.4956,-0.72865c0.158317,-0.297458 0.385958,-0.683416 0.505433,-0.857466c0.119967,-0.17405 0.316633,-0.461675 0.437583,-0.639166c0.12095,-0.177492 0.334825,-0.565908 0.475441,-0.863366c0.140617,-0.297458 0.337775,-0.629825 0.439058,-0.738483c0.100792,-0.10915 0.2773,-0.410541 0.39235,-0.66965c0.114558,-0.2596 0.26845,-0.495108 0.341708,-0.523133c0.073258,-0.028025 0.228625,-0.257633 0.345641,-0.51035c0.117017,-0.252717 0.357933,-0.680466 0.535425,-0.950883c0.931708,-1.419933 1.134766,-1.754266 1.134766,-1.869316c0,-0.068833 0.132258,-0.267467 0.294508,-0.441025c0.161758,-0.173067 0.361866,-0.513791 0.444466,-0.756675c0.082108,-0.243375 0.256158,-0.581641 0.385958,-0.75225c0.871725,-1.146566 0.860908,-5.727914 -0.016225,-6.677322c-0.112592,-0.121933 -0.277792,-0.398741 -0.366783,-0.615075c-0.088992,-0.216333 -0.285658,-0.526083 -0.437091,-0.688333c-0.151433,-0.16225 -0.337283,-0.388416 -0.413,-0.502975c-0.159792,-0.241408 -1.183933,-1.168691 -1.996657,-1.807857c-0.309258,-0.243375 -0.9027,-0.731108 -1.318158,-1.083141c-0.41595,-0.352525 -0.850091,-0.706525 -0.96465,-0.786666c-0.114558,-0.080633 -0.446433,-0.332367 -0.7375,-0.5605c-0.291067,-0.227642 -0.7198,-0.559516 -0.953341,-0.7375c-0.23305,-0.177492 -0.597866,-0.4779 -0.810758,-0.667191c-0.7198,-0.640641 -1.025616,-0.891391 -1.321599,-1.083633c-0.16225,-0.105708 -0.5605,-0.414475 -0.885,-0.685875c-0.3245,-0.271892 -0.767,-0.627858 -0.983333,-0.791583c-0.543291,-0.411033 -0.98825,-0.7788 -1.358474,-1.122966c-0.300408,-0.279267 -0.74635,-0.617041 -1.591524,-1.205074c-0.216333,-0.15045 -0.509858,-0.383991 -0.652441,-0.5192c-0.142092,-0.135208 -0.511825,-0.444958 -0.821083,-0.688333c-1.019225,-0.801908 -1.722307,-1.530066 -1.722307,-1.783766c0,-0.1298 -0.132258,-0.76405 -0.294508,-1.409608c-0.161758,-0.645558 -0.320567,-1.530066 -0.353016,-1.964699c-0.0708,-0.94695 -0.377108,-2.841832 -0.581641,-3.59359c-0.081125,-0.297458 -0.194208,-1.204583 -0.251242,-2.015832c-0.066867,-0.944 -0.171592,-1.669699 -0.290575,-2.015832c-0.224692,-0.653425 -0.376616,-1.568416 -0.490191,-2.95049c-0.046217,-0.567875 -0.155367,-1.342249 -0.2419,-1.720832c-0.086533,-0.378091 -0.222233,-0.975466 -0.3009,-1.327008c-0.079158,-0.351541 -0.189292,-1.160824 -0.24485,-1.798024c-0.055558,-0.637691 -0.169625,-1.345691 -0.252717,-1.573333c-0.083583,-0.228133 -0.243375,-0.679975 -0.355475,-1.004475c-0.1121,-0.3245 -0.302867,-0.700625 -0.423816,-0.835833c-0.121442,-0.135208 -0.301392,-0.378583 -0.400708,-0.540833c-0.233542,-0.382025 -1.905207,-2.015832 -2.062541,-2.015832c-0.066375,0 -0.347116,-0.155858 -0.624416,-0.346625c-0.839275,-0.577216 -2.500615,-0.85255 -3.943165,-0.652441c-0.405625,0.05605 -3.790748,0.150942 -7.522496,0.210433c-5.335072,0.08555 -6.959047,0.141108 -7.60018,0.260583c-2.792174,0.520183 -4.26324,0.145533 -6.01898,-1.532524c-0.567875,-0.5428 -1.063474,-0.987266 -1.101824,-0.987266c-0.037858,-0.000492 -0.260583,-0.188308 -0.494616,-0.418408c-0.647033,-0.635233 -1.802449,-1.654458 -2.085157,-1.839816c-0.13865,-0.090958 -0.558533,-0.459708 -0.933183,-0.819116c-0.37465,-0.3599 -0.807808,-0.732583 -0.963175,-0.82895c-0.155367,-0.096367 -0.567875,-0.450366 -0.916958,-0.786175c-0.348591,-0.3363 -1.002016,-0.967108 -1.451891,-1.401249c-0.449383,-0.434633 -0.852058,-0.790108 -0.894833,-0.790108c-0.042775,0 -0.360391,-0.267467 -0.706525,-0.594425c-0.346133,-0.326467 -0.81125,-0.72275 -1.032991,-0.879591c-0.222233,-0.157333 -0.721275,-0.58705 -1.108708,-0.954816c-1.193274,-1.131816 -2.027141,-1.764099 -2.765132,-2.096466c-0.243375,-0.109642 -0.57525,-0.272383 -0.7375,-0.361866c-1.086091,-0.597866 -0.928758,-0.568858 -3.195832,-0.589016c-1.162791,-0.010325 -2.284774,0.023108 -2.49324,0.074242m-30.639668,54.596115c0.276808,0.217317 0.76405,1.190324 0.933183,1.863416c0.09145,0.363833 0.269925,0.782733 0.396775,0.930233c0.200108,0.232558 0.434633,0.959733 0.434633,1.346183c0,0.068833 0.13275,0.325975 0.295,0.570825c0.16225,0.24485 0.338267,0.674075 0.391366,0.953341c0.099808,0.527066 0.228133,0.837308 0.453808,1.097891c0.072767,0.083092 0.20355,0.437091 0.291067,0.786666c0.087517,0.349083 0.263042,0.789616 0.3894,0.978908c0.12685,0.189292 0.301883,0.622941 0.388908,0.963666c0.087025,0.340725 0.283692,0.871725 0.437091,1.179999c0.152908,0.308275 0.329908,0.773883 0.39235,1.034958c0.062933,0.260583 0.240425,0.703083 0.3953,0.983333c0.154383,0.279758 0.311225,0.685875 0.3481,0.902208c0.036383,0.216333 0.198633,0.628841 0.359408,0.916958c0.161267,0.287625 0.376125,0.855991 0.4779,1.262599c0.101775,0.406608 0.251733,0.813216 0.33335,0.903683c0.081617,0.090467 0.199125,0.384975 0.261075,0.6549c0.06195,0.269433 0.262058,0.799941 0.444466,1.178524c0.1829,0.378583 0.3835,0.931708 0.445941,1.229166c0.062933,0.297458 0.236,0.762083 0.384975,1.032499c0.148975,0.270417 0.297458,0.701116 0.329908,0.956783c0.257633,2.012882 0.85845,0.860908 0.657358,-1.259649c-0.055558,-0.590491 -0.101775,-1.414033 -0.101775,-1.829491c0,-0.415458 -0.054083,-0.880083 -0.119475,-1.032499c-0.36875,-0.852058 -0.654408,-17.168008 -0.307783,-17.551016c0.236983,-0.262058 5.564681,-0.277792 5.852305,-0.017208c0.2419,0.218792 0.28615,34.928475 0.045233,35.128583c-0.095875,0.079158 -0.973008,0.104233 -3.018832,0.08555l-2.884115,-0.026058l-0.368258,-0.639166c-0.202567,-0.351541 -0.440533,-0.882541 -0.529033,-1.179999c-0.088008,-0.297458 -0.266975,-0.724716 -0.397758,-0.9499c-0.130292,-0.224692 -0.302867,-0.662275 -0.3835,-0.972025c-0.080633,-0.309258 -0.235017,-0.712425 -0.343183,-0.895816c-0.107675,-0.1829 -0.267958,-0.586066 -0.355475,-0.896308c-0.088008,-0.30975 -0.2832,-0.786175 -0.43365,-1.058558c-0.150942,-0.272383 -0.34515,-0.770933 -0.431191,-1.108216c-0.086533,-0.337283 -0.246817,-0.734058 -0.356458,-0.882541c-0.109642,-0.147992 -0.294017,-0.622941 -0.41005,-1.055116c-0.115542,-0.432175 -0.288117,-0.897291 -0.383008,-1.033483c-0.094892,-0.136683 -0.2478,-0.512808 -0.339742,-0.835833c-0.092433,-0.323517 -0.289592,-0.809283 -0.439058,-1.079699c-0.148975,-0.270417 -0.323025,-0.707508 -0.386941,-0.971041c-0.063425,-0.263042 -0.231083,-0.705541 -0.372683,-0.983333c-0.1416,-0.2773 -0.317617,-0.790108 -0.391858,-1.140174c-0.074242,-0.349575 -0.217808,-0.777325 -0.319583,-0.949408c-0.101775,-0.172575 -0.298933,-0.682433 -0.437583,-1.133783c-0.139142,-0.45135 -0.364325,-1.038399 -0.500516,-1.304391c-0.136192,-0.265992 -0.248292,-0.597866 -0.248783,-0.7375c-0.002458,-0.465608 -0.273367,-1.282266 -0.5251,-1.581199c-0.147008,-0.175525 -0.276808,-0.486258 -0.318108,-0.762575c-0.03835,-0.25665 -0.121442,-0.618025 -0.185358,-0.802891l-0.115542,-0.3363l-0.130292,0.464625c-0.105217,0.376125 -0.107183,0.608683 -0.009833,1.221299c0.065883,0.41595 0.15635,1.531049 0.201092,2.477507c0.045233,0.946458 0.125867,1.919957 0.180442,2.163332c0.204533,0.915483 0.264025,16.598167 0.063917,16.818925c-0.246817,0.272875 -4.877331,0.299917 -5.175281,0.029992c-0.295492,-0.267467 -0.279267,-34.744591 0.016717,-35.040575c0.240425,-0.240425 4.821281,-0.303358 5.118739,-0.0708m36.082907,0.0708c0.2773,0.2773 0.307783,5.516006 0.033925,5.81838c-0.151925,0.16815 -0.396775,0.17995 -3.655048,0.17995c-3.111757,0 -3.511973,0.0177 -3.672257,0.162742c-0.263533,0.238458 -0.279758,7.82438 -0.017208,8.113971c0.150942,0.167167 0.384483,0.17995 3.261715,0.17995c3.893998,0 3.458873,-0.33335 3.458873,2.648115c0,3.108315 0.43365,2.760215 -3.44019,2.760215c-2.717932,0 -3.154532,0.02065 -3.288757,0.154383c-0.233542,0.234033 -0.233542,7.81553 0,8.049563c0.135208,0.135208 0.638183,0.154383 4.031665,0.154383c3.746007,0 3.884165,0.006883 4.073948,0.196667c0.277792,0.277792 0.308767,6.301689 0.033925,6.605047c-0.204533,0.226167 -15.719559,0.286642 -15.944251,0.06195c-0.210925,-0.210925 -0.166675,-34.868491 0.044742,-35.102033c0.265992,-0.294017 14.784409,-0.277792 15.078918,0.016717m9.337729,0.018683c0.133733,0.143567 0.2006,0.348591 0.2006,0.615566c0,0.220267 0.107675,0.930725 0.239933,1.579233c0.131767,0.648508 0.288608,1.820641 0.348591,2.604849c0.1239,1.617583 0.202567,2.239049 0.483308,3.819265c0.10915,0.613108 0.247308,1.763607 0.3068,2.556665c0.059492,0.793058 0.177492,1.884066 0.263042,2.424899c0.25665,1.626924 0.314175,2.230691 0.512808,5.359164c0.130292,2.057624 0.237475,3.122573 0.340725,3.392498c0.083092,0.216333 0.153892,0.503958 0.156842,0.639166c0.009342,0.382025 0.22715,1.011358 0.461183,1.330449l0.2124,0.289592l0.051133,-0.343183c0.20945,-1.405674 0.260583,-1.805891 0.315158,-2.456857c0.075225,-0.899258 0.321058,-2.39589 0.4484,-2.731699c0.051625,-0.1357 0.161758,-0.861891 0.244358,-1.613649c0.0826,-0.751758 0.213383,-1.545308 0.290575,-1.763116c0.166183,-0.471016 0.387925,-1.710999 0.58115,-3.248932c0.077192,-0.613108 0.23305,-1.402724 0.346625,-1.753774c0.113083,-0.351541 0.268942,-1.236541 0.346133,-1.966666c0.077192,-0.730616 0.249275,-1.748857 0.383008,-2.262649c0.133733,-0.514283 0.30975,-1.541374 0.391858,-2.282807c0.081617,-0.741433 0.198633,-1.441566 0.260092,-1.556124c0.060967,-0.114067 0.213383,-0.7434 0.338758,-1.398299c0.298933,-1.561041 0.07375,-1.448941 2.915582,-1.448941l2.333941,0l0.1888,0.239933c0.133733,0.170117 0.2065,0.46905 0.249275,1.027583c0.033433,0.432666 0.131275,0.955308 0.217808,1.161316c0.170117,0.406608 0.378583,1.660849 0.541816,3.258273c0.056542,0.559025 0.1652,1.178524 0.240917,1.376666c0.145042,0.379566 0.387433,1.984366 0.499533,3.31039c0.036875,0.432666 0.168642,1.059541 0.293033,1.392891c0.213875,0.572791 0.346133,1.430749 0.497075,3.228773c0.036383,0.432666 0.128817,0.963666 0.206008,1.179999c0.222233,0.627858 0.420375,1.926841 0.562466,3.689957c0.072767,0.900733 0.181917,1.730666 0.242392,1.843749c0.060475,0.113083 0.110133,0.387433 0.110133,0.609666c0,0.221742 0.0885,0.577216 0.196667,0.789125c0.108167,0.211908 0.200108,0.57525 0.204042,0.807316c0.009342,0.506908 0.220758,1.150499 0.323517,0.984316c0.091942,-0.148975 0.137667,-0.571808 0.362358,-3.364965c0.211908,-2.638774 0.325975,-3.654065 0.42775,-3.818773c0.100792,-0.163233 0.2478,-1.660849 0.349083,-3.556223c0.047692,-0.892375 0.131767,-1.821624 0.187325,-2.064999c0.340725,-1.493683 0.413,-1.977974 0.509858,-3.424948c0.059,-0.883525 0.148483,-1.845716 0.199125,-2.138749c0.050642,-0.293033 0.13275,-0.770441 0.1829,-1.061016c0.05015,-0.290575 0.1357,-0.699641 0.190275,-0.909583c0.054575,-0.209942 0.15045,-1.222283 0.213383,-2.249866c0.098825,-1.617583 0.139633,-1.894882 0.30385,-2.064999c0.272875,-0.282708 5.265747,-0.3599 5.96588,-0.092433c0.485766,0.185358 0.46905,0.0413 0.17405,1.469099c-0.089483,0.432666 -0.204533,1.261124 -0.25665,1.840307c-0.054575,0.614583 -0.176508,1.263583 -0.291558,1.556616c-0.186342,0.472 -0.392841,1.714932 -0.547716,3.28974c-0.036875,0.378583 -0.17405,1.042333 -0.30385,1.474999c-0.136192,0.453316 -0.296967,1.390924 -0.379566,2.212499c-0.165692,1.654949 -0.196175,1.831949 -0.435616,2.556665c-0.098333,0.297458 -0.208467,0.872708 -0.244358,1.278333c-0.092925,1.046266 -0.323025,2.392449 -0.546241,3.195832c-0.105217,0.378583 -0.255175,1.263583 -0.334333,1.966666c-0.078667,0.703083 -0.211417,1.469099 -0.295,1.702149c-0.157333,0.437583 -0.294017,1.331924 -0.459216,2.996707c-0.052117,0.529033 -0.199125,1.281283 -0.325975,1.671666c-0.143075,0.43955 -0.296967,1.326516 -0.404641,2.331974c-0.118492,1.103791 -0.247308,1.821132 -0.40415,2.242982c-0.142092,0.3835 -0.270417,1.041349 -0.334825,1.720832c-0.180933,1.895866 0.16225,1.736566 -3.74404,1.738041c-3.42249,0.001475 -3.261223,0.0413 -3.387582,-0.834358c-0.038842,-0.270417 -0.157333,-0.712425 -0.26255,-0.98235c-0.107675,-0.276808 -0.27435,-1.178033 -0.381041,-2.064999c-0.104233,-0.865825 -0.304342,-1.972566 -0.444466,-2.459315c-0.160283,-0.557058 -0.286642,-1.319633 -0.340233,-2.057132c-0.051133,-0.70505 -0.16815,-1.428783 -0.293033,-1.816216c-0.2301,-0.711441 -0.434633,-1.903241 -0.53395,-3.108315c-0.035892,-0.432666 -0.110625,-0.963666 -0.167167,-1.179999c-0.05605,-0.216333 -0.1416,-0.636708 -0.189783,-0.934166c-0.047692,-0.297458 -0.130783,-0.784208 -0.183883,-1.081666c-0.053592,-0.297458 -0.142583,-1.226708 -0.198633,-2.064999c-0.05605,-0.838291 -0.149958,-1.773441 -0.20945,-2.078274l-0.107675,-0.553616l-0.259108,0.135208c-0.143075,0.074733 -0.310242,0.1357 -0.372191,0.136192c-0.210925,0.000983 -0.367766,0.808791 -0.520183,2.678599c-0.050642,0.6195 -0.224692,1.697724 -0.386941,2.395399c-0.16225,0.698166 -0.340233,1.734107 -0.395791,2.302474c-0.055067,0.568366 -0.186833,1.320616 -0.292542,1.671666c-0.240917,0.798958 -0.274842,0.974483 -0.449383,2.327057c-0.078175,0.604258 -0.227642,1.290133 -0.332367,1.524166c-0.26845,0.598358 -0.293525,0.704558 -0.412016,1.752791c-0.143075,1.264074 -0.274842,1.898324 -0.499041,2.405232c-0.121442,0.27435 -0.223217,0.842225 -0.285658,1.591524c-0.199125,2.383599 0.027042,2.240032 -3.57589,2.276416c-3.662915,0.036875 -3.275482,0.177983 -3.597032,-1.307341c-0.058508,-0.270417 -0.192733,-0.869266 -0.298442,-1.330449c-0.105708,-0.461183 -0.239442,-1.346183 -0.29795,-1.966666c-0.058508,-0.620483 -0.1711,-1.346674 -0.250258,-1.614633c-0.169625,-0.5723 -0.394808,-1.963716 -0.48675,-3.004082c-0.035892,-0.405625 -0.193225,-1.290624 -0.349083,-1.966666c-0.15635,-0.676041 -0.349083,-1.804416 -0.428241,-2.507499c-0.079158,-0.703083 -0.25665,-1.742957 -0.394316,-2.310832c-0.137667,-0.567875 -0.320075,-1.674124 -0.405625,-2.458332c-0.085058,-0.784208 -0.217808,-1.647083 -0.294508,-1.917499c-0.2006,-0.707016 -0.439058,-2.162349 -0.441516,-2.692365c-0.000983,-0.249767 -0.062442,-0.7198 -0.136192,-1.044299c-0.07375,-0.3245 -0.22715,-0.995133 -0.340725,-1.489749c-0.113575,-0.495108 -0.248783,-1.380108 -0.300408,-1.967157c-0.051625,-0.58705 -0.20945,-1.509416 -0.35105,-2.050249c-0.147992,-0.564925 -0.298933,-1.505483 -0.354,-2.212007c-0.07965,-1.013816 -0.349575,-2.489799 -0.552141,-3.017357c-0.208958,-0.544275 6.159597,-0.838783 6.654213,-0.307292" id="path0"/>
   <path fill-rule="evenodd" fill="#ff6e1f" d="m84.959959,0.196667c0,0.190767 -0.065392,0.196667 -2.155466,0.196667c-2.469149,0 -2.466199,-0.000492 -2.466199,0.452825l0,0.333842l-1.762132,0c-2.045824,0 -2.072866,0.0059 -2.072866,0.450366l0,0.331383l-1.499583,0.027042l-1.499583,0.027042l-0.030483,0.36875l-0.030483,0.36875l-1.507941,0c-1.627416,0 -1.626924,0 -1.626924,0.5487c0,0.237967 -0.000492,0.237967 -1.130833,0.237967l-1.130833,0l0,0.344166l0,0.344166l-1.061999,0c-1.154924,0 -1.297999,0.056542 -1.297999,0.511333l0,0.275333l-1.029058,0c-1.097891,0 -1.232608,0.062442 -1.232608,0.570333c0,0.172083 -0.093417,0.1947 -0.9794,0.236983c-1.048724,0.050642 -1.282266,0.1475 -1.282266,0.531983c0,0.22715 -0.024092,0.234033 -0.786666,0.234033l-0.786666,0l0,0.3894l0,0.388908l-0.762083,0.029008l-0.762083,0.028517l-0.030483,0.365308l-0.029992,0.3658l-1.051674,0.027533l-1.051183,0.028025l-0.093908,0.319583c-0.089975,0.305817 -0.116033,0.319583 -0.59,0.321058c-0.76995,0.001967 -0.924825,0.072275 -0.996116,0.451841c-0.06195,0.3304 -0.067358,0.33335 -0.59885,0.33335c-0.691775,0 -0.916958,0.121442 -0.916958,0.495108l0,0.291558l-0.614583,0.001475c-0.729633,0.001967 -0.8319,0.0531 -0.87615,0.441516c-0.032942,0.288608 -0.046217,0.295492 -0.692266,0.343675c-0.715375,0.053592 -0.831408,0.118 -0.881558,0.491666c-0.027533,0.206008 -0.092925,0.25075 -0.401691,0.276317c-0.348591,0.029008 -0.36875,0.049167 -0.36875,0.36875l0,0.338267l-0.6313,0c-0.833866,0 -0.942033,0.050642 -0.942033,0.439058c0,0.319092 -0.000983,0.319583 -0.60475,0.383008c-0.68145,0.0708 -0.87025,0.181917 -0.87025,0.511333c0,0.192733 -0.057525,0.23305 -0.36875,0.258617c-0.3481,0.028517 -0.370225,0.051133 -0.399233,0.3953l-0.029992,0.364816l-0.756675,0.028517l-0.756183,0.028517l-0.029992,0.363341c-0.028517,0.341217 -0.052117,0.364816 -0.393333,0.393333c-0.326958,0.027042 -0.366291,0.060475 -0.393333,0.3363c-0.029008,0.297458 -0.045725,0.307783 -0.628841,0.36875c-0.676533,0.070308 -0.865333,0.181917 -0.865333,0.510841c0,0.192733 -0.057525,0.23305 -0.36875,0.258617c-0.348591,0.029008 -0.370225,0.050642 -0.399233,0.399233c-0.029992,0.360391 -0.039825,0.369241 -0.4425,0.38055c-0.782241,0.022125 -0.995625,0.109642 -1.050691,0.431683c-0.043267,0.252225 -0.099317,0.298442 -0.393333,0.326467c-0.386941,0.036875 -0.488716,0.146025 -0.490683,0.527066c-0.001475,0.234525 -0.043758,0.267958 -0.370225,0.295c-0.348591,0.029008 -0.370225,0.050642 -0.399233,0.399233c-0.029008,0.348591 -0.049167,0.36875 -0.36875,0.36875c-0.318108,0 -0.338267,0.019667 -0.338267,0.329908l0,0.329908l-0.66375,0.06195c-0.684891,0.063917 -0.909583,0.206008 -0.909583,0.57525c0,0.122917 -0.07375,0.177983 -0.23895,0.177983c-0.303358,0 -0.547716,0.2419 -0.547716,0.541816c0,0.198142 -0.055067,0.237475 -0.36875,0.263533c-0.348591,0.029008 -0.370225,0.050642 -0.399233,0.399233c-0.029008,0.348591 -0.049167,0.36875 -0.36875,0.36875c-0.328925,0 -0.338267,0.010817 -0.338267,0.393333l0,0.393333l-0.393333,0c-0.383991,0 -0.393333,0.008358 -0.393333,0.344166c0,0.335808 -0.009342,0.344166 -0.393333,0.344166c-0.39235,0 -0.393333,0.000983 -0.393333,0.387433c0,0.376616 -0.010325,0.388416 -0.36875,0.417916c-0.347608,0.028517 -0.370716,0.051133 -0.398741,0.393825c-0.028517,0.341217 -0.052117,0.364816 -0.393333,0.393333c-0.342691,0.028025 -0.365308,0.051133 -0.393825,0.398741l-0.030483,0.36875l-0.577216,0c-0.641133,0 -0.885983,0.151433 -0.885983,0.547716c0,0.187325 -0.051625,0.23895 -0.23895,0.23895c-0.396283,0 -0.547716,0.24485 -0.547716,0.885983l0,0.577216l-0.36875,0.030483c-0.347608,0.028517 -0.370716,0.051133 -0.398741,0.393825c-0.028517,0.341217 -0.052117,0.364816 -0.393333,0.393333c-0.342691,0.028025 -0.365308,0.051133 -0.393825,0.398741c-0.0295,0.358425 -0.0413,0.36875 -0.417916,0.36875c-0.38645,0 -0.387433,0.000983 -0.387433,0.393333c0,0.383991 -0.008358,0.393333 -0.344166,0.393333c-0.335808,0 -0.344166,0.009342 -0.344166,0.393333l0,0.393333l-0.393333,0c-0.382516,0 -0.393333,0.009342 -0.393333,0.338267c0,0.319583 -0.020158,0.339742 -0.36875,0.36875c-0.348591,0.029008 -0.370225,0.050642 -0.399233,0.399233c-0.026058,0.313683 -0.065392,0.36875 -0.263533,0.36875c-0.299917,0 -0.541816,0.244358 -0.541816,0.547716c0,0.1652 -0.055067,0.23895 -0.177983,0.23895c-0.369241,0 -0.511333,0.224692 -0.57525,0.909583l-0.06195,0.66375l-0.329908,0c-0.310242,0 -0.329908,0.020158 -0.329908,0.338267c0,0.319583 -0.020158,0.339742 -0.36875,0.36875c-0.348591,0.029008 -0.370225,0.050642 -0.399233,0.399233c-0.027042,0.326467 -0.060475,0.36875 -0.295,0.370225c-0.381041,0.001967 -0.490191,0.103742 -0.527066,0.490683c-0.028025,0.294017 -0.074242,0.350066 -0.326467,0.393333c-0.322042,0.055067 -0.409558,0.26845 -0.431683,1.050691c-0.011308,0.402675 -0.020158,0.412508 -0.38055,0.4425c-0.348591,0.029008 -0.370225,0.050642 -0.399233,0.399233c-0.025567,0.311225 -0.065883,0.36875 -0.258617,0.36875c-0.328925,0 -0.440533,0.1888 -0.510841,0.865333c-0.060967,0.583116 -0.071292,0.599833 -0.36875,0.628841c-0.275825,0.027042 -0.309258,0.066375 -0.3363,0.393333c-0.028517,0.341217 -0.052117,0.364816 -0.393333,0.393333l-0.363341,0.029992l-0.028517,0.756183l-0.028517,0.756675l-0.364816,0.029992c-0.344166,0.029008 -0.366783,0.051133 -0.3953,0.399233c-0.025567,0.311225 -0.065883,0.36875 -0.258617,0.36875c-0.329417,0 -0.440533,0.1888 -0.511333,0.87025c-0.063425,0.603766 -0.063917,0.60475 -0.383008,0.60475c-0.388416,0 -0.439058,0.108167 -0.439058,0.942033l0,0.6313l-0.338267,0c-0.319583,0 -0.339742,0.020158 -0.36875,0.36875c-0.025567,0.308767 -0.070308,0.374158 -0.276317,0.401691c-0.373666,0.05015 -0.438075,0.166183 -0.491666,0.881558c-0.048183,0.64605 -0.055067,0.659325 -0.343675,0.692266c-0.388416,0.04425 -0.43955,0.146517 -0.441516,0.87615l-0.001475,0.614583l-0.291558,0c-0.373666,0 -0.495108,0.225183 -0.495108,0.916958c0,0.531491 -0.00295,0.5369 -0.33335,0.59885c-0.381533,0.071292 -0.449875,0.225183 -0.451841,1.016275c-0.001475,0.443975 -0.028025,0.51625 -0.191258,0.51625c-0.4012,0 -0.49855,0.249767 -0.49855,1.279316l0,0.97055l-0.36875,0.030483l-0.36875,0.030483l-0.028517,0.762083l-0.029008,0.762083l-0.388908,0l-0.3894,0l0,0.766508l0,0.766016l-0.319583,0.0944c-0.377108,0.110625 -0.438075,0.30385 -0.455283,1.445991c-0.010817,0.700625 -0.028025,0.762083 -0.214858,0.762083c-0.522641,0 -0.583608,0.128817 -0.583608,1.232608l0,1.029058l-0.275333,0c-0.454791,0 -0.511333,0.143075 -0.511333,1.297999l0,1.061999l-0.344166,0l-0.344166,0l0,1.130833c0,1.130341 0,1.130833 -0.237967,1.130833c-0.5487,0 -0.5487,-0.000492 -0.5487,1.626924l0,1.507941l-0.36875,0.030483l-0.36875,0.030483l-0.027042,1.499583l-0.027042,1.499583l-0.331383,0c-0.444466,0 -0.450366,0.027042 -0.450366,2.072866l0,1.762132l-0.333842,0c-0.453316,0 -0.452825,-0.00295 -0.452825,2.466199c0,2.090074 -0.0059,2.155466 -0.196667,2.155466c-0.195683,0 -0.196667,0.065392 -0.196667,13.422493c0,13.357102 0.000983,13.422493 0.196667,13.422493c0.190767,0 0.196667,0.065392 0.196667,2.156449c0,2.339841 0.028025,2.465215 0.547716,2.465215l0.23895,0l0,1.763116c0,1.912582 0.042283,2.071882 0.547716,2.071882l0.23895,0l0,1.368799c0,1.624958 0.01475,1.679533 0.450366,1.679533l0.331383,0l0.027042,1.499583l0.027042,1.499583l0.3658,0.030483l0.3658,0.029992l0.027533,1.150008l0.027533,1.149516l0.316633,0.030483l0.316142,0.030483l0.028025,1.100349l0.027533,1.100349l0.36875,0.030483l0.36875,0.030483l0,0.969566c0,1.193766 0.029992,1.280299 0.441516,1.280299l0.322042,0l0.039333,0.972025c0.040808,1.021683 0.131275,1.254733 0.5074,1.308324c0.194208,0.027533 0.2183,0.102267 0.263042,0.81715l0.049167,0.786666l0.36875,0.030483l0.36875,0.030483l0,0.7316l0,0.7316l0.393333,0l0.393333,0l0,0.940558c0,1.054133 0.089975,1.321108 0.445941,1.321108c0.231083,0 0.242392,0.028025 0.242392,0.596391c0,0.751266 0.114558,0.976941 0.495108,0.976941c0.28615,0 0.291558,0.009833 0.293033,0.51625c0.001967,0.791091 0.070308,0.944983 0.451841,1.016275l0.33335,0.062933l0,0.571808c0,0.636216 0.152417,0.881066 0.547716,0.881066c0.228133,0 0.23895,0.028517 0.23895,0.632283c0,0.696691 0.140617,0.94105 0.541816,0.94105c0.198142,0 0.237475,0.055067 0.263533,0.36875c0.028025,0.336792 0.058508,0.371208 0.350066,0.399725l0.319583,0.030483l0,0.625891c0,0.686366 0.142092,0.93515 0.53395,0.93515c0.20355,0 0.230592,0.058508 0.288117,0.614583c0.0649,0.629333 0.217317,0.860416 0.567383,0.860416c0.127833,0 0.17995,0.094892 0.202567,0.36875c0.029008,0.348591 0.050642,0.370225 0.399233,0.399233l0.36875,0.030483l0,0.678991c0,0.722258 0.105708,0.882541 0.583608,0.882541c0.166675,0 0.203058,0.06195 0.203058,0.344166c0,0.324992 0.018192,0.344166 0.329908,0.344166l0.329908,0l0.06195,0.66375c0.063917,0.684891 0.206008,0.909583 0.57525,0.909583c0.129308,0 0.177983,0.075225 0.177983,0.275333c0,0.345641 0.161267,0.511333 0.497566,0.511333c0.2478,0 0.264025,0.030975 0.3245,0.614583c0.0649,0.629333 0.217317,0.860416 0.567383,0.860416c0.127833,0 0.17995,0.094892 0.202567,0.36875c0.029008,0.348591 0.050642,0.370225 0.399233,0.399233c0.358425,0.0295 0.36875,0.0413 0.36875,0.417916c0,0.38645 0.000983,0.387433 0.393333,0.387433l0.393333,0l0,0.393333c0,0.38055 0.010325,0.393333 0.3304,0.393333l0.329908,0l0.063425,0.60475c0.071292,0.6844 0.181917,0.87025 0.517233,0.87025c0.181917,0 0.234033,0.0531 0.234033,0.237967c0,0.426766 0.100792,0.5487 0.452825,0.5487c0.324008,0 0.333842,0.0118 0.333842,0.393333c0,0.39235 0.000983,0.393333 0.387433,0.393333c0.376616,0 0.388416,0.010325 0.417916,0.36875c0.029008,0.348591 0.050642,0.370225 0.399233,0.399233c0.358425,0.0295 0.36875,0.0413 0.36875,0.417916c0,0.376125 0.009833,0.387433 0.338267,0.387433c0.319583,0 0.339742,0.020158 0.36875,0.36875c0.029008,0.348591 0.050642,0.370225 0.399233,0.399233c0.348591,0.029008 0.36875,0.049167 0.36875,0.36875c0,0.328925 0.010817,0.338267 0.393333,0.338267l0.393333,0l0,0.393333l0,0.393333l0.393333,0l0.393333,0l0,0.571316c0,0.630316 0.12685,0.873691 0.479375,0.921383c0.167658,0.022617 0.264517,0.128325 0.344166,0.37465c0.118492,0.367275 0.3186,0.45725 1.069374,0.48085c0.353508,0.011308 0.36875,0.026058 0.36875,0.355966c0,0.335808 0.009342,0.344166 0.393333,0.344166l0.393333,0l0,0.393333l0,0.393333l0.393333,0l0.393333,0l0,0.393333l0,0.393333l0.393333,0l0.393333,0l0,0.393333c0,0.39235 0.000983,0.393333 0.387433,0.393333c0.376616,0 0.388416,0.010325 0.417916,0.36875c0.028025,0.336792 0.058508,0.371208 0.350066,0.399725c0.275333,0.02655 0.319583,0.06785 0.319583,0.299917c0,0.343183 0.163725,0.504941 0.511333,0.504941c0.206008,0 0.275333,0.047692 0.275333,0.1888c0,0.376125 0.1121,0.499533 0.452825,0.499533c0.288117,0 0.333842,0.032942 0.333842,0.23895c0,0.4071 0.2419,0.547716 0.94105,0.547716l0.632283,0l0,0.393333c0,0.383991 0.008358,0.393333 0.344166,0.393333c0.311225,0 0.344166,0.026058 0.344166,0.275333c0,0.349575 0.161758,0.511333 0.511333,0.511333c0.226167,0 0.275333,0.042775 0.275333,0.23895c0,0.321058 0.246817,0.547716 0.596883,0.547716c0.252225,0 0.288117,0.0354 0.288117,0.284675c0,0.345641 0.128817,0.403658 0.892866,0.403658l0.582133,0l0,0.387433c0,0.376616 0.010325,0.388416 0.36875,0.417916c0.309258,0.025567 0.373666,0.070308 0.400216,0.276317c0.046708,0.363833 0.284675,0.491666 0.915483,0.491666l0.565416,0l0.030483,0.36875c0.029008,0.348591 0.050642,0.370225 0.399233,0.399233c0.334333,0.027533 0.36875,0.057033 0.36875,0.316142c0,0.374158 0.229608,0.489208 0.976941,0.489208l0.596391,0l0,0.338267c0,0.319583 0.020158,0.339742 0.36875,0.36875c0.309258,0.025567 0.373666,0.070308 0.400216,0.276317c0.046708,0.363833 0.284675,0.491666 0.915483,0.491666l0.565416,0l0.030483,0.36875l0.030483,0.36875l0.756183,0.028517l0.756675,0.028517l0.029992,0.364816c0.029008,0.344166 0.051133,0.366783 0.399233,0.3953c0.311225,0.025567 0.36875,0.065883 0.36875,0.258617c0,0.335808 0.198633,0.446925 0.922858,0.514283c0.632283,0.059 0.650475,0.068833 0.650475,0.335808c0,0.349575 0.054083,0.379075 0.826491,0.45135c0.627366,0.058508 0.638675,0.064408 0.667683,0.365308l0.029992,0.305817l0.712916,0.029008c0.640641,0.026058 0.712916,0.049167 0.712916,0.227642c0,0.473966 0.161267,0.579183 0.888441,0.579183c0.644083,0 0.684891,0.013275 0.686366,0.22125c0.00295,0.432175 0.119967,0.484291 1.209991,0.53985l1.039874,0.0531l0.029992,0.354983l0.0295,0.354983l0.756183,0.028517l0.756675,0.028517l0.029992,0.364816l0.030483,0.364816l0.762083,0.028517c0.671125,0.025567 0.762083,0.051133 0.762083,0.214367c0,0.397758 0.251733,0.494616 1.285216,0.494616c0.967108,0 0.97645,0.002458 0.97645,0.237967c0,0.530016 0.040317,0.5487 1.184424,0.5487l1.065441,0l0.030483,0.36875l0.030483,0.36875l1.149516,0.027533l1.150008,0.027533l0.029992,0.3658l0.030483,0.3658l1.106249,0.028025c1.093958,0.027042 1.106249,0.029992 1.106249,0.263042c0,0.484783 0.189783,0.544766 1.727716,0.544766l1.418949,0l0,0.344166l0,0.344166l1.518266,0l1.518266,0l0.030483,0.36875l0.030483,0.36875l1.887016,0.02655l1.887016,0.027042l0.030483,0.366291l0.030483,0.366783l2.286249,0.02655c2.204632,0.025075 2.286249,0.033433 2.286249,0.22125c0,0.193225 0.107183,0.1947 13.422493,0.1947c13.357102,0 13.422493,-0.000983 13.422493,-0.196667c0,-0.190767 0.065392,-0.196667 2.251341,-0.196667c2.441615,0 2.370324,0.016717 2.370324,-0.5487l0,-0.237967l1.858007,0c2.009441,0 1.976991,0.00885 1.976991,-0.546241l0,-0.235508l1.499583,-0.027042l1.499583,-0.027042l0.030975,-0.319583l0.030483,-0.319583l1.362408,0c1.618074,0 1.673633,-0.01475 1.673633,-0.449875l0,-0.3304l1.155416,-0.028025l1.155416,-0.027533l0.030483,-0.36875l0.030483,-0.36875l1.124933,0l1.124933,0l0,-0.389891l0,-0.390383l1.106249,-0.027533l1.106249,-0.028025l0.030483,-0.36875l0.030483,-0.36875l1.0148,0c1.051183,0 1.177049,-0.04425 1.250308,-0.4425c0.030975,-0.170608 0.125867,-0.2006 0.719308,-0.226167c0.774866,-0.033433 0.937116,-0.123408 0.937116,-0.5192c0,-0.277792 0.002458,-0.278775 0.712916,-0.307292l0.712916,-0.029008l0.030483,-0.36875l0.030483,-0.36875l0.80535,-0.0118c1.179016,-0.016717 1.367324,-0.074733 1.464674,-0.450858c0.081617,-0.314667 0.083583,-0.31565 0.792566,-0.344166l0.711441,-0.029008l0.030483,-0.364325l0.029992,-0.364816l0.707508,-0.028517c0.697675,-0.028517 0.708,-0.032942 0.797483,-0.335808c0.086533,-0.294017 0.118,-0.30975 0.730616,-0.366783c0.6549,-0.060967 0.797483,-0.1534 0.799941,-0.517725c0.001475,-0.184375 0.072275,-0.213383 0.641625,-0.259108c0.709475,-0.057033 0.933183,-0.181917 0.933183,-0.52215c0,-0.192733 0.057525,-0.23305 0.36875,-0.258617c0.348591,-0.029008 0.370225,-0.050642 0.399233,-0.399233l0.030483,-0.36875l0.721275,0c0.769458,0 0.840258,-0.046217 0.840258,-0.5487c0,-0.224692 0.031958,-0.237967 0.583116,-0.237967c0.645066,0 0.891883,-0.149958 0.891883,-0.541816c0,-0.198142 0.055067,-0.237475 0.36875,-0.263533c0.336792,-0.028025 0.371208,-0.058508 0.399725,-0.350066l0.030483,-0.319583l0.625891,0c0.6903,0 0.93515,-0.142092 0.93515,-0.541816c0,-0.190275 0.058017,-0.237967 0.319583,-0.263042c0.291558,-0.028517 0.322042,-0.062933 0.350066,-0.399725l0.030483,-0.36875l0.626383,0c0.6903,0 0.93515,-0.142092 0.93515,-0.541816c0,-0.198142 0.055067,-0.237475 0.36875,-0.263533c0.347608,-0.028517 0.370225,-0.051133 0.399233,-0.394808l0.029992,-0.364325l0.658341,-0.029008c0.648508,-0.028517 0.659325,-0.033433 0.751758,-0.348591c0.069817,-0.236 0.151433,-0.319583 0.311717,-0.319583c0.403658,0 0.528541,-0.105708 0.528541,-0.446925c0,-0.307783 0.022617,-0.329908 0.36875,-0.358425c0.347608,-0.028517 0.370716,-0.051133 0.398741,-0.393825c0.028517,-0.341217 0.052117,-0.364816 0.393333,-0.393333c0.342691,-0.028025 0.365308,-0.051133 0.393825,-0.398741l0.030483,-0.36875l0.621466,0c0.660308,0 0.771425,-0.0649 0.877625,-0.509858c0.05015,-0.209942 0.128817,-0.270908 0.382516,-0.295c0.279267,-0.027042 0.323025,-0.070308 0.349575,-0.34515c0.027533,-0.284183 0.064408,-0.316633 0.393333,-0.344166c0.340725,-0.028025 0.364816,-0.052117 0.392841,-0.393333c0.028517,-0.341217 0.052117,-0.364816 0.393333,-0.393333c0.341217,-0.028025 0.365308,-0.052117 0.393333,-0.393333c0.028517,-0.341217 0.052117,-0.364816 0.393333,-0.393333c0.342691,-0.028025 0.365308,-0.051133 0.393825,-0.398741c0.0295,-0.358425 0.0413,-0.36875 0.417916,-0.36875c0.38645,0 0.387433,-0.000983 0.387433,-0.393333c0,-0.383991 0.008358,-0.393333 0.344166,-0.393333c0.335808,0 0.344166,-0.009342 0.344166,-0.393333l0,-0.393333l0.393333,0c0.383991,0 0.393333,-0.008358 0.393333,-0.344166c0,-0.343675 0.000492,-0.344166 0.467083,-0.354c0.709475,-0.01475 0.953833,-0.110133 0.992675,-0.387433c0.046708,-0.332858 0.194208,-0.487733 0.464133,-0.487733c0.298933,0 0.33335,-0.0708 0.404641,-0.8319l0.059983,-0.6431l0.329908,0c0.319583,0 0.329908,-0.012783 0.329908,-0.393333l0,-0.393333l0.393333,0c0.383991,0 0.393333,-0.008358 0.393333,-0.344166c0,-0.335808 0.009342,-0.344166 0.393333,-0.344166c0.39235,0 0.393333,-0.000983 0.393333,-0.387433c0,-0.376616 0.010325,-0.388416 0.36875,-0.417916c0.347608,-0.028517 0.370716,-0.051133 0.398741,-0.393825c0.028517,-0.341217 0.052117,-0.364816 0.393333,-0.393333c0.341217,-0.028025 0.365308,-0.052117 0.393333,-0.393333c0.028517,-0.341217 0.052117,-0.364816 0.393333,-0.393333c0.341217,-0.028025 0.365308,-0.052117 0.393333,-0.392841c0.027533,-0.328925 0.059983,-0.3658 0.344166,-0.393333c0.274842,-0.02655 0.318108,-0.070308 0.34515,-0.349575c0.024092,-0.2537 0.085058,-0.332367 0.295,-0.382516c0.444958,-0.1062 0.509858,-0.217317 0.509858,-0.877625l0,-0.621466l0.36875,-0.030483c0.347608,-0.028517 0.370716,-0.051133 0.398741,-0.393825c0.028517,-0.341217 0.052117,-0.364816 0.393333,-0.393333c0.342691,-0.028025 0.365308,-0.051133 0.393825,-0.398741c0.028517,-0.346133 0.050642,-0.36875 0.358425,-0.36875c0.341217,0 0.446925,-0.124883 0.446925,-0.528541c0,-0.160283 0.083583,-0.2419 0.319583,-0.311717c0.315158,-0.092433 0.320075,-0.10325 0.348591,-0.751758l0.029008,-0.658341l0.364325,-0.029992c0.343675,-0.029008 0.366291,-0.051625 0.394808,-0.399233c0.026058,-0.313683 0.065392,-0.36875 0.263533,-0.36875c0.399725,0 0.541816,-0.24485 0.541816,-0.93515l0,-0.626383l0.36875,-0.030483c0.336792,-0.028025 0.371208,-0.058508 0.399725,-0.350066c0.025075,-0.261567 0.072767,-0.319583 0.263042,-0.319583c0.399725,0 0.541816,-0.24485 0.541816,-0.93515l0,-0.625891l0.319583,-0.030483c0.291558,-0.028517 0.322042,-0.062933 0.350066,-0.399725c0.026058,-0.313683 0.065392,-0.36875 0.263533,-0.36875c0.391858,0 0.541816,-0.246817 0.541816,-0.891883c0,-0.551158 0.013275,-0.583116 0.237967,-0.583116c0.502483,0 0.5487,-0.0708 0.5487,-0.840258l0,-0.721275l0.36875,-0.030483c0.348591,-0.029008 0.370225,-0.050642 0.399233,-0.399233c0.025567,-0.311225 0.065883,-0.36875 0.258617,-0.36875c0.340233,0 0.465116,-0.223708 0.52215,-0.933183c0.045725,-0.56935 0.074733,-0.64015 0.259108,-0.641625c0.364325,-0.002458 0.456758,-0.145042 0.517725,-0.799941c0.057033,-0.612616 0.072767,-0.644083 0.366783,-0.730616c0.302867,-0.089483 0.307292,-0.099808 0.335808,-0.797483l0.028517,-0.707508l0.364816,-0.029992l0.364325,-0.030483l0.029008,-0.711441c0.028517,-0.708983 0.0295,-0.71095 0.344166,-0.792566c0.376125,-0.09735 0.434141,-0.285658 0.450858,-1.464674l0.0118,-0.80535l0.36875,-0.030483l0.36875,-0.030483l0.029008,-0.712916c0.028517,-0.710458 0.0295,-0.712916 0.307292,-0.712916c0.395791,0 0.485766,-0.16225 0.5192,-0.937116c0.025567,-0.593441 0.055558,-0.688333 0.226167,-0.719308c0.39825,-0.073258 0.4425,-0.199125 0.4425,-1.250308l0,-1.0148l0.36875,-0.030483l0.36875,-0.030483l0.028025,-1.106249l0.027533,-1.106249l0.390383,0l0.389891,0l0,-1.124933l0,-1.124933l0.36875,-0.030483l0.36875,-0.030483l0.027533,-1.155416l0.028025,-1.155416l0.3304,0c0.435125,0 0.449875,-0.055558 0.449875,-1.673633l0,-1.362408l0.319583,-0.030483l0.319583,-0.030975l0.027042,-1.499583l0.027042,-1.499583l0.235508,0c0.555091,0 0.546241,0.03245 0.546241,-1.976991l0,-1.858007l0.237967,0c0.565416,0 0.5487,0.071292 0.5487,-2.370324c0,-2.185949 0.0059,-2.251341 0.196667,-2.251341c0.195683,0 0.196667,-0.065392 0.196667,-13.422493c0,-13.31531 -0.001475,-13.422493 -0.1947,-13.422493c-0.187817,0 -0.196175,-0.081617 -0.22125,-2.286249l-0.02655,-2.286249l-0.366783,-0.030483l-0.366291,-0.030483l-0.027042,-1.887016l-0.02655,-1.887016l-0.36875,-0.030483l-0.36875,-0.030483l0,-1.518266l0,-1.518266l-0.344166,0l-0.344166,0l0,-1.418949c0,-1.537933 -0.059983,-1.727716 -0.544766,-1.727716c-0.23305,0 -0.236,-0.012292 -0.263042,-1.106249l-0.028025,-1.106249l-0.3658,-0.030483l-0.3658,-0.029992l-0.027533,-1.150008l-0.027533,-1.149516l-0.36875,-0.030483l-0.36875,-0.030483l0,-1.065441c0,-1.144108 -0.018683,-1.184424 -0.5487,-1.184424c-0.235508,0 -0.237967,-0.009342 -0.237967,-0.97645c0,-1.033483 -0.096858,-1.285216 -0.494616,-1.285216c-0.163233,0 -0.1888,-0.090958 -0.214367,-0.762083l-0.028517,-0.762083l-0.364816,-0.030483l-0.364816,-0.029992l-0.028517,-0.756675l-0.028517,-0.756183l-0.354983,-0.0295l-0.354983,-0.029992l-0.0531,-1.039874c-0.055558,-1.090024 -0.107675,-1.207041 -0.53985,-1.209991c-0.207975,-0.001475 -0.22125,-0.042283 -0.22125,-0.686366c0,-0.727175 -0.105217,-0.888441 -0.579183,-0.888441c-0.178475,0 -0.201583,-0.072275 -0.227642,-0.712916l-0.029008,-0.712916l-0.305817,-0.029992c-0.3009,-0.029008 -0.3068,-0.040317 -0.365308,-0.667683c-0.072275,-0.772408 -0.101775,-0.826491 -0.45135,-0.826491c-0.266975,0 -0.276808,-0.018192 -0.335808,-0.650475c-0.067358,-0.724225 -0.178475,-0.922858 -0.514283,-0.922858c-0.192733,0 -0.23305,-0.057525 -0.258617,-0.36875c-0.028517,-0.3481 -0.051133,-0.370225 -0.3953,-0.399233l-0.364816,-0.029992l-0.028517,-0.756675l-0.028517,-0.756183l-0.36875,-0.030483l-0.36875,-0.030483l0,-0.565416c0,-0.630808 -0.127833,-0.868775 -0.491666,-0.915483c-0.206008,-0.02655 -0.25075,-0.090958 -0.276317,-0.400216c-0.029008,-0.348591 -0.049167,-0.36875 -0.36875,-0.36875l-0.338267,0l0,-0.596391c0,-0.747333 -0.11505,-0.976941 -0.489208,-0.976941c-0.259108,0 -0.288608,-0.034417 -0.316142,-0.36875c-0.029008,-0.348591 -0.050642,-0.370225 -0.399233,-0.399233l-0.36875,-0.030483l0,-0.565416c0,-0.630808 -0.127833,-0.868775 -0.491666,-0.915483c-0.206008,-0.02655 -0.25075,-0.090958 -0.276317,-0.400216c-0.0295,-0.358425 -0.0413,-0.36875 -0.417916,-0.36875l-0.387433,0l0,-0.582133c0,-0.76405 -0.058017,-0.892866 -0.403658,-0.892866c-0.249275,0 -0.284675,-0.035892 -0.284675,-0.288117c0,-0.350066 -0.226658,-0.596883 -0.547716,-0.596883c-0.196175,0 -0.23895,-0.049167 -0.23895,-0.275333c0,-0.349575 -0.161758,-0.511333 -0.511333,-0.511333c-0.249275,0 -0.275333,-0.032942 -0.275333,-0.344166c0,-0.335808 -0.009342,-0.344166 -0.393333,-0.344166l-0.393333,0l0,-0.632283c0,-0.69915 -0.140617,-0.94105 -0.547716,-0.94105c-0.206008,0 -0.23895,-0.045725 -0.23895,-0.333842c0,-0.340725 -0.123408,-0.452825 -0.499533,-0.452825c-0.141108,0 -0.1888,-0.069325 -0.1888,-0.275333c0,-0.349575 -0.161758,-0.511333 -0.511333,-0.511333c-0.249275,0 -0.275333,-0.032942 -0.275333,-0.344166c0,-0.335808 -0.009342,-0.344166 -0.393333,-0.344166l-0.393333,0l0,-0.393333l0,-0.393333l-0.393333,0l-0.393333,0l0,-0.393333l0,-0.393333l-0.393333,0l-0.393333,0l0,-0.393333l0,-0.393333l-0.393333,0l-0.393333,0l0,-0.393333c0,-0.383991 -0.008358,-0.393333 -0.344166,-0.393333c-0.329908,0 -0.344658,-0.015242 -0.355966,-0.36875c-0.0236,-0.750775 -0.113575,-0.950883 -0.48085,-1.069374c-0.246325,-0.07965 -0.352033,-0.176508 -0.37465,-0.344166c-0.047692,-0.352525 -0.291067,-0.479375 -0.921383,-0.479375l-0.571316,0l0,-0.393333l0,-0.393333l-0.393333,0l-0.393333,0l0,-0.393333c0,-0.382516 -0.009342,-0.393333 -0.338267,-0.393333c-0.319583,0 -0.339742,-0.020158 -0.36875,-0.36875c-0.029008,-0.348591 -0.050642,-0.370225 -0.399233,-0.399233c-0.348591,-0.029008 -0.36875,-0.049167 -0.36875,-0.36875c0,-0.328433 -0.011308,-0.338267 -0.387433,-0.338267c-0.376616,0 -0.388416,-0.010325 -0.417916,-0.36875c-0.029008,-0.348591 -0.050642,-0.370225 -0.399233,-0.399233c-0.358425,-0.0295 -0.36875,-0.0413 -0.36875,-0.417916c0,-0.38645 -0.000983,-0.387433 -0.393333,-0.387433c-0.381533,0 -0.393333,-0.009833 -0.393333,-0.333842c0,-0.352033 -0.121933,-0.452825 -0.5487,-0.452825c-0.184867,0 -0.237967,-0.052117 -0.237967,-0.234033c0,-0.335317 -0.18585,-0.445941 -0.87025,-0.517233l-0.60475,-0.063425l0,-0.329908c0,-0.320075 -0.012783,-0.3304 -0.393333,-0.3304l-0.393333,0l0,-0.393333c0,-0.39235 -0.000983,-0.393333 -0.387433,-0.393333c-0.376616,0 -0.388416,-0.010325 -0.417916,-0.36875c-0.029008,-0.348591 -0.050642,-0.370225 -0.399233,-0.399233c-0.311225,-0.025567 -0.36875,-0.065883 -0.36875,-0.258617c0,-0.329417 -0.1888,-0.440533 -0.87025,-0.511333c-0.573283,-0.059983 -0.60475,-0.077192 -0.60475,-0.3245c0,-0.3363 -0.165692,-0.497566 -0.511333,-0.497566c-0.200108,0 -0.275333,-0.048675 -0.275333,-0.177983c0,-0.369241 -0.224692,-0.511333 -0.909583,-0.57525l-0.66375,-0.06195l0,-0.329908c0,-0.311717 -0.019175,-0.329908 -0.344166,-0.329908c-0.282217,0 -0.344166,-0.036383 -0.344166,-0.203058c0,-0.4779 -0.160283,-0.583608 -0.882541,-0.583608l-0.678991,0l-0.030483,-0.36875c-0.029008,-0.348591 -0.050642,-0.370225 -0.399233,-0.399233c-0.273858,-0.022617 -0.36875,-0.074733 -0.36875,-0.202567c0,-0.350066 -0.231083,-0.502483 -0.860416,-0.567383c-0.556075,-0.057525 -0.614583,-0.084567 -0.614583,-0.288117c0,-0.391858 -0.248783,-0.53395 -0.93515,-0.53395l-0.625891,0l-0.030483,-0.319583c-0.028517,-0.291558 -0.062933,-0.322042 -0.399725,-0.350066c-0.313683,-0.026058 -0.36875,-0.065392 -0.36875,-0.263533c0,-0.4012 -0.244358,-0.541816 -0.94105,-0.541816c-0.603766,0 -0.632283,-0.010817 -0.632283,-0.23895c0,-0.3953 -0.24485,-0.547716 -0.881066,-0.547716l-0.571808,0l-0.062933,-0.33335c-0.071292,-0.381533 -0.225183,-0.449875 -1.016275,-0.451841c-0.506416,-0.001475 -0.51625,-0.006883 -0.51625,-0.293033c0,-0.38055 -0.225675,-0.495108 -0.976941,-0.495108c-0.556566,0 -0.596391,-0.015242 -0.596391,-0.226167c0,-0.39825 -0.172083,-0.462166 -1.248833,-0.462166l-1.012833,0l0,-0.393333l0,-0.393333l-0.7316,0l-0.7316,0l-0.030483,-0.36875l-0.030483,-0.36875l-0.786666,-0.049167c-0.714883,-0.044742 -0.789616,-0.068833 -0.81715,-0.263042c-0.053592,-0.376125 -0.286642,-0.466591 -1.308324,-0.5074l-0.972025,-0.039333l0,-0.322042c0,-0.411525 -0.086533,-0.441516 -1.280299,-0.441516l-0.969566,0l-0.030483,-0.36875l-0.030483,-0.36875l-1.100349,-0.027533l-1.100349,-0.028025l-0.030483,-0.316142l-0.030483,-0.316633l-1.149516,-0.027533l-1.150008,-0.027533l-0.029992,-0.3658l-0.030483,-0.3658l-1.499583,-0.027042l-1.499583,-0.027042l0,-0.331383c0,-0.435616 -0.054575,-0.450366 -1.679533,-0.450366l-1.368799,0l0,-0.23895c0,-0.505433 -0.1593,-0.547716 -2.071882,-0.547716l-1.763116,0l0,-0.23895c0,-0.519691 -0.125375,-0.547716 -2.465215,-0.547716c-2.091057,0 -2.156449,-0.0059 -2.156449,-0.196667c0,-0.195683 -0.065392,-0.196667 -13.422493,-0.196667c-13.357102,0 -13.422493,0.000983 -13.422493,0.196667m15.880826,30.736527c0.216333,0.1121 0.526083,0.276808 0.688333,0.366291c0.16225,0.089483 0.494125,0.252225 0.7375,0.361866c0.737991,0.332367 1.571858,0.96465 2.765132,2.096466c0.387433,0.367766 0.886475,0.797483 1.108708,0.954816c0.221742,0.156842 0.686858,0.553125 1.032991,0.879591c0.346133,0.326958 0.66375,0.594425 0.706525,0.594425c0.042775,0 0.44545,0.355475 0.894833,0.790108c0.449875,0.434141 1.103299,1.064949 1.451891,1.401249c0.349083,0.335808 0.761591,0.689808 0.916958,0.786175c0.155367,0.096367 0.588525,0.46905 0.963175,0.82895c0.37465,0.359408 0.794533,0.728158 0.933183,0.819116c0.282708,0.185358 1.438124,1.204583 2.085157,1.839816c0.234033,0.2301 0.456758,0.417916 0.494616,0.418408c0.03835,0 0.53395,0.444466 1.101824,0.987266c1.755741,1.678058 3.226807,2.052707 6.01898,1.532524c0.641133,-0.119475 2.265107,-0.175033 7.60018,-0.260583c3.731748,-0.059492 7.116872,-0.154383 7.522496,-0.210433c1.442549,-0.200108 3.10389,0.075225 3.943165,0.652441c0.2773,0.190767 0.558041,0.346625 0.624416,0.346625c0.157333,0 1.828999,1.633808 2.062541,2.015832c0.099317,0.16225 0.279267,0.405625 0.400708,0.540833c0.12095,0.135208 0.311717,0.511333 0.423816,0.835833c0.1121,0.3245 0.271892,0.776341 0.355475,1.004475c0.083092,0.227642 0.197158,0.935641 0.252717,1.573333c0.055558,0.6372 0.165692,1.446483 0.24485,1.798024c0.078667,0.351541 0.214367,0.948916 0.3009,1.327008c0.086533,0.378583 0.195683,1.152958 0.2419,1.720832c0.113575,1.382074 0.2655,2.297066 0.490191,2.95049c0.118983,0.346133 0.223708,1.071833 0.290575,2.015832c0.057033,0.81125 0.170117,1.718374 0.251242,2.015832c0.204533,0.751758 0.510841,2.64664 0.581641,3.59359c0.03245,0.434633 0.191258,1.319141 0.353016,1.964699c0.16225,0.645558 0.294508,1.279808 0.294508,1.409608c0,0.2537 0.703083,0.981858 1.722307,1.783766c0.309258,0.243375 0.678991,0.553125 0.821083,0.688333c0.142583,0.135208 0.436108,0.36875 0.652441,0.5192c0.845175,0.588033 1.291116,0.925808 1.591524,1.205074c0.370225,0.344166 0.815183,0.711933 1.358474,1.122966c0.216333,0.163725 0.658833,0.519691 0.983333,0.791583c0.3245,0.2714 0.72275,0.580166 0.885,0.685875c0.295983,0.192242 0.6018,0.442991 1.321599,1.083633c0.212892,0.189292 0.577708,0.4897 0.810758,0.667191c0.233542,0.177983 0.662275,0.509858 0.953341,0.7375c0.291067,0.228133 0.622941,0.479866 0.7375,0.5605c0.114558,0.080142 0.5487,0.434141 0.96465,0.786666c0.415458,0.352033 1.0089,0.839766 1.318158,1.083141c0.812725,0.639166 1.836866,1.566449 1.996657,1.807857c0.075717,0.114558 0.261567,0.340725 0.413,0.502975c0.151433,0.16225 0.3481,0.472 0.437091,0.688333c0.088992,0.216333 0.254192,0.493141 0.366783,0.615075c0.877133,0.949408 0.88795,5.530756 0.016225,6.677322c-0.1298,0.170608 -0.30385,0.508875 -0.385958,0.75225c-0.0826,0.242883 -0.282708,0.583608 -0.444466,0.756675c-0.16225,0.173558 -0.294508,0.372191 -0.294508,0.441025c0,0.11505 -0.203058,0.449383 -1.134766,1.869316c-0.177492,0.270417 -0.418408,0.698166 -0.535425,0.950883c-0.117017,0.252717 -0.272383,0.482325 -0.345641,0.51035c-0.073258,0.028025 -0.22715,0.263533 -0.341708,0.523133c-0.11505,0.259108 -0.291558,0.5605 -0.39235,0.66965c-0.101283,0.108658 -0.298442,0.441025 -0.439058,0.738483c-0.140617,0.297458 -0.354491,0.685875 -0.475441,0.863366c-0.12095,0.177492 -0.317617,0.465116 -0.437583,0.639166c-0.119475,0.17405 -0.347116,0.560008 -0.505433,0.857466c-0.158317,0.297458 -0.381041,0.6254 -0.4956,0.72865c-0.114067,0.10325 -0.254683,0.362358 -0.3127,0.576233c-0.057525,0.213875 -0.211417,0.488225 -0.342691,0.609666c-0.130783,0.12095 -0.307783,0.38645 -0.39235,0.589508c-0.140125,0.335808 -0.372683,0.717833 -1.001525,1.645608c-0.12095,0.178475 -0.333842,0.563941 -0.472983,0.856483c-0.13865,0.29205 -0.383008,0.689316 -0.541816,0.882541c-0.1593,0.193225 -0.289592,0.396283 -0.289592,0.451841c-0.000492,0.055067 -0.181917,0.3658 -0.403658,0.6903l-0.403658,0.59l0.049658,0.934166c0.034417,0.644575 0.125867,1.147549 0.295492,1.622499c0.1357,0.380058 0.316633,1.242933 0.403658,1.926841c0.087025,0.680958 0.264025,1.543833 0.393333,1.917499c0.1298,0.373666 0.307292,1.232116 0.394808,1.908157c0.158317,1.221299 0.198633,1.421899 0.491175,2.458332c0.083583,0.297458 0.196667,0.970058 0.25075,1.494174c0.109642,1.062983 0.214367,1.589066 0.44545,2.241999c0.086042,0.243375 0.243867,1.047249 0.350558,1.786716c0.106692,0.739466 0.262058,1.536458 0.34515,1.770491c0.453316,1.275383 0.592458,4.115248 0.246817,5.047448c-0.427258,1.152958 -0.7257,1.782291 -0.933183,1.966666c-0.121442,0.108167 -0.317617,0.357441 -0.435125,0.553616c-0.299917,0.500025 -1.503516,1.540391 -2.095482,1.811299c-0.181425,0.083092 -0.476916,0.257633 -0.656866,0.387925c-0.17995,0.130292 -0.556075,0.303358 -0.835833,0.384975c-0.279758,0.081125 -0.656866,0.257142 -0.8378,0.390383c-0.205517,0.151925 -0.579183,0.285167 -0.998083,0.355966c-0.368258,0.06195 -0.937116,0.239442 -1.263583,0.393825c-0.326467,0.154383 -0.806333,0.310733 -1.066424,0.347608c-0.260092,0.036875 -0.804858,0.198142 -1.210483,0.358425c-0.405625,0.159792 -1.020208,0.356458 -1.365849,0.4366c-0.345641,0.080142 -0.848616,0.257633 -1.117558,0.393825c-0.26845,0.136192 -0.760116,0.290575 -1.091991,0.343183c-0.332367,0.052117 -0.871233,0.219283 -1.198191,0.371208c-0.326467,0.151925 -0.835341,0.331875 -1.130833,0.400708c-0.295,0.068833 -0.830916,0.251733 -1.190324,0.4071c-0.3599,0.155858 -0.97055,0.349575 -1.356999,0.4307c-0.385958,0.081125 -0.892375,0.234033 -1.124441,0.339742c-0.232067,0.105708 -0.749791,0.2655 -1.150991,0.354491c-0.400708,0.088992 -0.907125,0.264517 -1.124933,0.389891c-0.217808,0.124883 -0.559025,0.257633 -0.757658,0.295c-0.198633,0.037367 -0.452825,0.162742 -0.565416,0.279267c-0.527066,0.544766 -0.81715,0.983825 -0.9027,1.366833c-0.051133,0.229608 -0.2183,0.550175 -0.370716,0.712425c-0.152908,0.16225 -0.331383,0.462166 -0.396283,0.666208c-0.065392,0.204042 -0.224692,0.497075 -0.354,0.650966c-0.1298,0.153892 -0.325483,0.489208 -0.435125,0.745366c-0.109642,0.255667 -0.285167,0.574266 -0.3894,0.707016c-0.104725,0.133242 -0.242392,0.405133 -0.306308,0.604258c-0.063425,0.199617 -0.222725,0.477408 -0.353016,0.618025c-0.130783,0.140125 -0.327942,0.494125 -0.438566,0.786666c-0.110133,0.29205 -0.301883,0.642116 -0.425783,0.777325c-0.1239,0.135208 -0.304833,0.467083 -0.402183,0.7375c-0.09735,0.270417 -0.255667,0.580658 -0.352525,0.689316c-0.096367,0.10915 -0.264517,0.400216 -0.373666,0.647033c-0.10915,0.246817 -0.282217,0.556075 -0.383991,0.68735c-0.102267,0.130783 -0.282708,0.458725 -0.4012,0.72865c-0.118492,0.269433 -0.301392,0.581641 -0.406116,0.69325c-0.105217,0.111608 -0.252225,0.406608 -0.326958,0.6549c-0.074733,0.248783 -0.269433,0.62245 -0.433158,0.830916c-0.163233,0.207975 -0.347608,0.539358 -0.409558,0.735533c-0.06195,0.196175 -0.195192,0.431683 -0.296475,0.523133c-0.101283,0.09145 -0.282217,0.394808 -0.402183,0.674566c-0.120458,0.279267 -0.318108,0.641133 -0.43955,0.803875c-0.121442,0.163233 -0.275825,0.473475 -0.343183,0.689808c-0.067358,0.216333 -0.244358,0.526083 -0.394316,0.688333c-0.149467,0.16225 -0.332367,0.470033 -0.406116,0.683416c-0.140617,0.407591 -1.702149,2.059591 -2.159399,2.284774c-0.130292,0.063917 -0.435616,0.20945 -0.678991,0.322533c-0.243375,0.113575 -0.56935,0.276317 -0.724716,0.361866c-0.903683,0.497566 -5.127589,0.439058 -5.743647,-0.079158c-0.177983,-0.149958 -0.58705,-0.3245 -0.993658,-0.423816c-0.405625,-0.099808 -0.795025,-0.2655 -0.941541,-0.4012c-0.21535,-0.199617 -0.795516,-0.435125 -1.075274,-0.437091c-0.048183,0 -0.41005,-0.155367 -0.803383,-0.344658c-0.393825,-0.189292 -0.78175,-0.344166 -0.862875,-0.344166c-0.080633,0 -0.439058,-0.154875 -0.795516,-0.344166c-0.35695,-0.189292 -0.711441,-0.344166 -0.78765,-0.344166c-0.0767,0 -0.441025,-0.157825 -0.809775,-0.35105c-0.369241,-0.192733 -0.892375,-0.409558 -1.162791,-0.481833c-0.662275,-0.177 -1.000541,-0.314667 -1.076258,-0.4366c-0.034417,-0.05605 -0.3599,-0.193225 -0.722258,-0.305325c-0.36285,-0.111608 -0.814691,-0.308767 -1.003983,-0.438075c-0.189292,-0.129308 -0.602783,-0.3009 -0.918925,-0.382516c-0.316142,-0.081125 -0.738483,-0.260583 -0.9381,-0.399233c-0.200108,-0.13865 -0.5723,-0.291067 -0.827966,-0.338758c-0.255175,-0.047692 -0.629825,-0.199617 -0.8319,-0.337775c-0.202075,-0.138158 -0.632775,-0.325483 -0.957275,-0.416933c-0.3245,-0.090958 -0.782733,-0.291558 -1.01775,-0.444958c-0.764541,-0.499041 -2.080732,-0.5192 -2.769065,-0.042283c-0.205025,0.142092 -0.676041,0.349083 -1.046266,0.4602c-0.370716,0.110625 -0.784208,0.277792 -0.919416,0.370716c-0.313192,0.21535 -0.522641,0.290575 -1.127883,0.406116c-0.26845,0.051133 -0.644575,0.198633 -0.835833,0.32745c-0.190767,0.129308 -0.607208,0.308275 -0.925808,0.398741c-0.318108,0.089975 -0.804858,0.288608 -1.081666,0.441516c-0.276317,0.152417 -0.73455,0.330892 -1.018241,0.396283c-0.2832,0.0649 -0.621958,0.202567 -0.75225,0.305325c-0.130783,0.102267 -0.518216,0.25665 -0.8614,0.342691c-0.343675,0.086042 -0.791091,0.264025 -0.994641,0.396283c-0.20355,0.131767 -0.64605,0.30975 -0.983333,0.394808c-0.337283,0.085058 -0.804366,0.28025 -1.037908,0.433158c-0.233542,0.1534 -0.6431,0.325483 -0.910566,0.383008c-0.267467,0.057033 -0.747825,0.236 -1.067408,0.397758c-0.320075,0.161267 -0.764541,0.322533 -0.988741,0.358425c-0.223708,0.035892 -0.569841,0.175525 -0.769458,0.311225c-0.199125,0.135208 -0.738483,0.369733 -1.198191,0.521166c-0.459708,0.150942 -1.097891,0.369241 -1.418458,0.484783c-0.535916,0.192733 -0.742908,0.206992 -2.556665,0.177983l-1.974041,-0.031467l-0.611633,-0.319583c-0.336792,-0.175525 -0.674566,-0.319583 -0.750775,-0.319583c-0.52215,0 -2.322632,-1.623483 -2.780374,-2.507499c-0.140125,-0.270417 -0.337775,-0.582133 -0.439058,-0.69325c-0.101283,-0.110625 -0.273858,-0.461675 -0.383008,-0.779783c-0.109642,-0.318108 -0.261567,-0.647525 -0.338267,-0.732583c-0.076208,-0.085058 -0.232067,-0.390875 -0.345641,-0.680466c-0.113575,-0.2891 -0.310733,-0.665225 -0.438075,-0.835833c-0.12685,-0.170117 -0.304833,-0.5369 -0.394808,-0.8142c-0.089975,-0.277792 -0.251733,-0.5841 -0.358916,-0.68145c-0.107183,-0.096858 -0.265008,-0.422833 -0.35105,-0.724225c-0.086042,-0.301392 -0.239933,-0.639658 -0.3422,-0.751266c-0.102267,-0.1121 -0.296475,-0.485275 -0.431191,-0.829441c-0.134717,-0.344166 -0.326467,-0.717341 -0.425783,-0.829441c-0.099317,-0.111608 -0.260092,-0.424308 -0.357441,-0.694725c-0.09735,-0.270417 -0.254192,-0.580166 -0.348591,-0.688333c-0.093908,-0.108167 -0.250258,-0.440041 -0.346625,-0.7375c-0.096367,-0.297458 -0.295983,-0.695708 -0.442991,-0.885c-0.147008,-0.189292 -0.3363,-0.553125 -0.419883,-0.808791c-0.084075,-0.255667 -0.260583,-0.609666 -0.392841,-0.786666c-0.132258,-0.177 -0.314667,-0.551158 -0.405625,-0.830916c-0.090958,-0.279758 -0.226658,-0.559516 -0.301392,-0.621466c-0.074733,-0.062442 -0.251242,-0.414475 -0.39235,-0.782733c-0.140617,-0.36875 -0.337283,-0.743891 -0.4366,-0.833866c-0.099808,-0.089975 -0.236983,-0.362358 -0.304833,-0.605241c-0.06785,-0.242883 -0.23895,-0.59295 -0.380058,-0.778308c-0.141108,-0.185358 -0.334825,-0.447416 -0.4307,-0.583116c-0.101283,-0.142583 -0.3481,-0.292542 -0.588525,-0.357441c-0.227642,-0.060967 -0.614091,-0.2124 -0.85845,-0.335808c-0.243867,-0.123408 -0.785191,-0.294508 -1.201633,-0.380058c-0.416933,-0.086042 -1.014308,-0.264025 -1.327499,-0.395791c-0.313683,-0.132258 -0.746841,-0.271892 -0.963175,-0.310733c-0.216333,-0.038842 -0.769458,-0.215842 -1.229166,-0.392841c-0.459708,-0.177492 -1.096908,-0.371208 -1.415999,-0.429716c-0.319583,-0.059 -0.762083,-0.2124 -0.983333,-0.341217c-0.413491,-0.240425 -1.227691,-0.455283 -1.725749,-0.455283c-0.153892,0 -0.538866,-0.136683 -0.8555,-0.30385c-0.320075,-0.169133 -0.924333,-0.370225 -1.361916,-0.453316c-0.432666,-0.082108 -0.992183,-0.2537 -1.243424,-0.381041c-0.251733,-0.127342 -0.776341,-0.304342 -1.166724,-0.392841c-0.389891,-0.088992 -0.892375,-0.240917 -1.116083,-0.338267c-0.2242,-0.09735 -0.7611,-0.252225 -1.193766,-0.344658c-0.432666,-0.092433 -0.965141,-0.269433 -1.182949,-0.394316c-0.217808,-0.124392 -0.571808,-0.256158 -0.786666,-0.29205c-0.559025,-0.0944 -1.324549,-0.347116 -1.324549,-0.437091c0,-0.042283 -0.270908,-0.22125 -0.602291,-0.397758c-0.731108,-0.389891 -1.642658,-1.277841 -1.922907,-1.873741c-0.113575,-0.241408 -0.29795,-0.521166 -0.409558,-0.621958c-0.829933,-0.7493 -1.347166,-4.534148 -0.828458,-6.060772c0.119475,-0.351541 0.305817,-1.148041 0.413983,-1.770491c0.108167,-0.62245 0.30385,-1.396824 0.434633,-1.720832c0.130292,-0.324008 0.308275,-1.040366 0.394316,-1.591524c0.086533,-0.551158 0.222233,-1.170658 0.301883,-1.376666c0.137667,-0.35695 0.351541,-1.336349 0.500025,-2.292149c0.037858,-0.243375 0.170117,-0.685875 0.294017,-0.983333c0.1239,-0.297458 0.295983,-1.01775 0.382516,-1.600866c0.086042,-0.583116 0.269433,-1.327499 0.4071,-1.654458c0.138158,-0.327942 0.3186,-1.065441 0.403166,-1.644133c0.084075,-0.577216 0.258125,-1.353066 0.386941,-1.724274c0.553616,-1.598408 0.526083,-2.721374 -0.087517,-3.547373c-0.172575,-0.232067 -0.39235,-0.549683 -0.488225,-0.706033c-0.493633,-0.804366 -0.870741,-1.366833 -1.040366,-1.552191c-0.103742,-0.113575 -0.288608,-0.405625 -0.410541,-0.649c-0.122425,-0.243375 -0.326467,-0.579183 -0.453808,-0.746841c-0.127342,-0.167167 -0.231575,-0.352525 -0.231575,-0.412016c0,-0.059 -0.166183,-0.306308 -0.36875,-0.549191c-0.382516,-0.457741 -0.78175,-1.047249 -1.204583,-1.777866c-0.135208,-0.233542 -0.326958,-0.502975 -0.426275,-0.59885c-0.098825,-0.095875 -0.221742,-0.283692 -0.272875,-0.417916c-0.051133,-0.134225 -0.346133,-0.61655 -0.655391,-1.071833c-0.30975,-0.455283 -0.695708,-1.043808 -0.857958,-1.307833c-0.580658,-0.944983 -0.889425,-1.403216 -1.184424,-1.756232c-0.1652,-0.19765 -0.382025,-0.547225 -0.482325,-0.777325c-0.100792,-0.2301 -0.245833,-0.471016 -0.322533,-0.534933c-0.077192,-0.063917 -0.243867,-0.320567 -0.370716,-0.570825c-0.12685,-0.250258 -0.30385,-0.515758 -0.393333,-0.59c-0.089483,-0.074242 -0.2655,-0.337283 -0.391366,-0.583608c-0.125375,-0.246817 -0.343183,-0.556075 -0.4838,-0.68735c-0.140617,-0.131275 -0.255667,-0.317617 -0.255667,-0.414475c0,-0.096858 -0.127342,-0.32155 -0.2832,-0.499041c-1.078224,-1.230641 -1.125916,-5.811006 -0.073258,-7.061805c0.1475,-0.176017 0.293033,-0.441516 0.322533,-0.590491c0.084075,-0.419883 1.477458,-1.775899 2.787257,-2.713015c1.195241,-0.854516 1.581691,-1.149024 1.952407,-1.487291c0.192733,-0.175525 0.381041,-0.319583 0.4189,-0.319583c0.037858,0 0.305325,-0.192733 0.594425,-0.428241c0.2891,-0.235508 0.6254,-0.459708 0.746841,-0.498058c0.121442,-0.038842 0.266483,-0.155858 0.322533,-0.260092c0.055558,-0.104233 0.273858,-0.277792 0.484783,-0.385466c0.211417,-0.107675 0.442008,-0.277792 0.5133,-0.378091c0.123408,-0.173558 0.414475,-0.38645 1.440583,-1.051674c0.252225,-0.163725 0.621466,-0.45135 0.820591,-0.639166c0.80535,-0.7611 1.062491,-0.980875 1.146074,-0.980875c0.116033,0 1.374699,-0.902208 1.687891,-1.209499c0.135208,-0.13275 0.356458,-0.296475 0.491666,-0.363833c0.135208,-0.067358 0.356458,-0.231083 0.491666,-0.364325c0.243867,-0.239442 0.431191,-0.376616 1.474999,-1.077241c0.297458,-0.200108 0.585083,-0.421358 0.639166,-0.49265c0.054083,-0.071292 0.235508,-0.229117 0.403166,-0.351541c1.232116,-0.897291 1.295049,-0.959733 1.454349,-1.445991c0.087025,-0.266483 0.158808,-0.630808 0.159792,-0.810266c0.000983,-0.178967 0.064408,-0.506416 0.1416,-0.728158c0.083092,-0.238458 0.182408,-1.179016 0.243375,-2.314274c0.063917,-1.183933 0.199617,-2.453415 0.35695,-3.33399c0.139633,-0.782241 0.33925,-2.462265 0.443975,-3.733223c0.104725,-1.270958 0.257142,-2.620582 0.33925,-2.999165c0.233542,-1.079699 0.325483,-1.761641 0.389891,-2.888049c0.0944,-1.642658 0.250258,-2.748415 0.450858,-3.202223c0.101283,-0.229608 0.231575,-0.6372 0.2891,-0.905158c0.057525,-0.26845 0.279758,-0.745858 0.494125,-1.061508c0.214367,-0.31565 0.3894,-0.618025 0.3894,-0.671616c0,-0.1947 1.829491,-1.869316 2.305424,-2.110232c0.267958,-0.136192 0.600325,-0.326467 0.737991,-0.423325c0.780766,-0.549683 5.007623,-0.866808 6.888247,-0.517233c0.414966,0.077192 2.983924,0.157333 7.32583,0.229117c4.925514,0.081617 6.890213,0.147008 7.459563,0.249767c1.091008,0.197158 1.727716,0.178967 2.029599,-0.057033c0.135208,-0.105708 0.282217,-0.193225 0.326467,-0.1947c0.04425,-0.000983 0.591966,-0.510841 1.216383,-1.132799c0.624908,-0.621958 1.172133,-1.130833 1.216383,-1.130833c0.043758,0 0.611141,-0.531 1.260633,-1.179999c0.649,-0.649 1.215891,-1.180491 1.259649,-1.180983c0.043758,-0.000492 0.69915,-0.605733 1.456316,-1.344216c0.757166,-0.738975 1.531541,-1.457299 1.720832,-1.596933c0.189292,-0.139633 0.82305,-0.717341 1.408133,-1.283741c0.585083,-0.566891 1.162791,-1.097891 1.283249,-1.179999c0.120458,-0.0826 0.71685,-0.648016 1.325533,-1.256208c0.608683,-0.608191 1.137224,-1.106741 1.175083,-1.107233c0.037858,-0.000983 0.378583,-0.291067 0.757166,-0.645558c0.378583,-0.354491 0.865333,-0.736025 1.081666,-0.847633c0.216333,-0.111608 0.51035,-0.285658 0.653425,-0.38645c0.628841,-0.442991 4.847831,-0.538375 5.639906,-0.127833m-40.759147,54.518432c-0.295983,0.295983 -0.312208,34.773108 -0.016717,35.040575c0.29795,0.269925 4.928464,0.242883 5.175281,-0.029992c0.200108,-0.220758 0.140617,-15.903442 -0.063917,-16.818925c-0.054575,-0.243375 -0.135208,-1.216874 -0.180442,-2.163332c-0.044742,-0.946458 -0.135208,-2.061557 -0.201092,-2.477507c-0.09735,-0.612616 -0.095383,-0.845175 0.009833,-1.221299l0.130292,-0.464625l0.115542,0.3363c0.063917,0.184867 0.147008,0.546241 0.185358,0.802891c0.0413,0.276317 0.1711,0.58705 0.318108,0.762575c0.251733,0.298933 0.522641,1.115591 0.5251,1.581199c0.000492,0.139633 0.112592,0.471508 0.248783,0.7375c0.136192,0.265992 0.361375,0.853041 0.500516,1.304391c0.13865,0.45135 0.335808,0.961208 0.437583,1.133783c0.101775,0.172083 0.245342,0.599833 0.319583,0.949408c0.074242,0.350066 0.250258,0.862875 0.391858,1.140174c0.1416,0.277792 0.309258,0.720291 0.372683,0.983333c0.063917,0.263533 0.237967,0.700625 0.386941,0.971041c0.149467,0.270417 0.346625,0.756183 0.439058,1.079699c0.091942,0.323025 0.24485,0.69915 0.339742,0.835833c0.094892,0.136192 0.267467,0.601308 0.383008,1.033483c0.116033,0.432175 0.300408,0.907125 0.41005,1.055116c0.109642,0.148483 0.269925,0.545258 0.356458,0.882541c0.086042,0.337283 0.28025,0.835833 0.431191,1.108216c0.15045,0.272383 0.345641,0.748808 0.43365,1.058558c0.087517,0.310242 0.2478,0.713408 0.355475,0.896308c0.108167,0.183392 0.26255,0.586558 0.343183,0.895816c0.080633,0.30975 0.253208,0.747333 0.3835,0.972025c0.130783,0.225183 0.30975,0.652441 0.397758,0.9499c0.0885,0.297458 0.326467,0.828458 0.529033,1.179999l0.368258,0.639166l2.884115,0.026058c2.045824,0.018683 2.922957,-0.006392 3.018832,-0.08555c0.240917,-0.200108 0.196667,-34.909791 -0.045233,-35.128583c-0.287625,-0.260583 -5.615322,-0.24485 -5.852305,0.017208c-0.346625,0.383008 -0.060967,16.698959 0.307783,17.551016c0.065392,0.152417 0.119475,0.617041 0.119475,1.032499c0,0.415458 0.046217,1.238999 0.101775,1.829491c0.201092,2.120557 -0.399725,3.272532 -0.657358,1.259649c-0.03245,-0.255667 -0.180933,-0.686366 -0.329908,-0.956783c-0.148975,-0.270417 -0.322042,-0.735041 -0.384975,-1.032499c-0.062442,-0.297458 -0.263042,-0.850583 -0.445941,-1.229166c-0.182408,-0.378583 -0.382516,-0.909091 -0.444466,-1.178524c-0.06195,-0.269925 -0.179458,-0.564433 -0.261075,-0.6549c-0.081617,-0.090467 -0.231575,-0.497075 -0.33335,-0.903683c-0.101775,-0.406608 -0.316633,-0.974975 -0.4779,-1.262599c-0.160775,-0.288117 -0.323025,-0.700625 -0.359408,-0.916958c-0.036875,-0.216333 -0.193717,-0.62245 -0.3481,-0.902208c-0.154875,-0.28025 -0.332367,-0.72275 -0.3953,-0.983333c-0.062442,-0.261075 -0.239442,-0.726683 -0.39235,-1.034958c-0.1534,-0.308275 -0.350066,-0.839275 -0.437091,-1.179999c-0.087025,-0.340725 -0.262058,-0.774375 -0.388908,-0.963666c-0.126358,-0.189292 -0.301883,-0.629825 -0.3894,-0.978908c-0.087517,-0.349575 -0.2183,-0.703575 -0.291067,-0.786666c-0.225675,-0.260583 -0.354,-0.570825 -0.453808,-1.097891c-0.0531,-0.279267 -0.229117,-0.708491 -0.391366,-0.953341c-0.16225,-0.24485 -0.295,-0.501991 -0.295,-0.570825c0,-0.38645 -0.234525,-1.113624 -0.434633,-1.346183c-0.12685,-0.1475 -0.305325,-0.5664 -0.396775,-0.930233c-0.169133,-0.673091 -0.656375,-1.646099 -0.933183,-1.863416c-0.297458,-0.232558 -4.878314,-0.169625 -5.118739,0.0708m26.122729,-0.016717c-0.211417,0.233542 -0.255667,34.891108 -0.044742,35.102033c0.224692,0.224692 15.739717,0.164217 15.944251,-0.06195c0.274842,-0.303358 0.243867,-6.327255 -0.033925,-6.605047c-0.189783,-0.189783 -0.327942,-0.196667 -4.073948,-0.196667c-3.393482,0 -3.896456,-0.019175 -4.031665,-0.154383c-0.233542,-0.234033 -0.233542,-7.81553 0,-8.049563c0.134225,-0.133733 0.570825,-0.154383 3.288757,-0.154383c3.87384,0 3.44019,0.3481 3.44019,-2.760215c0,-2.981465 0.435125,-2.648115 -3.458873,-2.648115c-2.877232,0 -3.110773,-0.012783 -3.261715,-0.17995c-0.26255,-0.289592 -0.246325,-7.875513 0.017208,-8.113971c0.160283,-0.145042 0.5605,-0.162742 3.672257,-0.162742c3.258273,0 3.503123,-0.0118 3.655048,-0.17995c0.273858,-0.302375 0.243375,-5.541081 -0.033925,-5.81838c-0.294508,-0.294508 -14.812926,-0.310733 -15.078918,-0.016717m18.0948,0.027533c-0.207483,0.10915 -0.35695,0.251242 -0.332367,0.315158c0.202567,0.527558 0.472491,2.003541 0.552141,3.017357c0.055067,0.706525 0.206008,1.647083 0.354,2.212007c0.1416,0.540833 0.299425,1.463199 0.35105,2.050249c0.051625,0.58705 0.186833,1.472049 0.300408,1.967157c0.113575,0.494616 0.266975,1.165249 0.340725,1.489749c0.07375,0.3245 0.135208,0.794533 0.136192,1.044299c0.002458,0.530016 0.240917,1.985349 0.441516,2.692365c0.0767,0.270417 0.20945,1.133291 0.294508,1.917499c0.08555,0.784208 0.267958,1.890457 0.405625,2.458332c0.137667,0.567875 0.315158,1.607749 0.394316,2.310832c0.079158,0.703083 0.271892,1.831457 0.428241,2.507499c0.155858,0.676041 0.313192,1.561041 0.349083,1.966666c0.091942,1.040366 0.317125,2.431782 0.48675,3.004082c0.079158,0.267958 0.19175,0.99415 0.250258,1.614633c0.058508,0.620483 0.192242,1.505483 0.29795,1.966666c0.105708,0.461183 0.239933,1.060033 0.298442,1.330449c0.32155,1.485324 -0.065883,1.344216 3.597032,1.307341c3.602932,-0.036383 3.376765,0.107183 3.57589,-2.276416c0.062442,-0.7493 0.164217,-1.317174 0.285658,-1.591524c0.2242,-0.506908 0.355966,-1.141158 0.499041,-2.405232c0.118492,-1.048233 0.143567,-1.154433 0.412016,-1.752791c0.104725,-0.234033 0.254192,-0.919908 0.332367,-1.524166c0.174542,-1.352574 0.208467,-1.528099 0.449383,-2.327057c0.105708,-0.35105 0.237475,-1.103299 0.292542,-1.671666c0.055558,-0.568366 0.233542,-1.604308 0.395791,-2.302474c0.16225,-0.697675 0.3363,-1.775899 0.386941,-2.395399c0.152417,-1.869807 0.309258,-2.677615 0.520183,-2.678599c0.06195,-0.000492 0.229117,-0.061458 0.372191,-0.136192l0.259108,-0.135208l0.107675,0.553616c0.059492,0.304833 0.1534,1.239983 0.20945,2.078274c0.05605,0.838291 0.145042,1.767541 0.198633,2.064999c0.0531,0.297458 0.136192,0.784208 0.183883,1.081666c0.048183,0.297458 0.133733,0.717833 0.189783,0.934166c0.056542,0.216333 0.131275,0.747333 0.167167,1.179999c0.099317,1.205074 0.30385,2.396874 0.53395,3.108315c0.124883,0.387433 0.2419,1.111166 0.293033,1.816216c0.053592,0.7375 0.17995,1.500074 0.340233,2.057132c0.140125,0.48675 0.340233,1.593491 0.444466,2.459315c0.106692,0.886966 0.273367,1.788191 0.381041,2.064999c0.105217,0.269925 0.223708,0.711933 0.26255,0.98235c0.126358,0.875658 -0.034908,0.835833 3.387582,0.834358c3.90629,-0.001475 3.563107,0.157825 3.74404,-1.738041c0.064408,-0.679483 0.192733,-1.337333 0.334825,-1.720832c0.156842,-0.42185 0.285658,-1.139191 0.40415,-2.242982c0.107675,-1.005458 0.261567,-1.892424 0.404641,-2.331974c0.12685,-0.390383 0.273858,-1.142633 0.325975,-1.671666c0.1652,-1.664783 0.301883,-2.559124 0.459216,-2.996707c0.083583,-0.23305 0.216333,-0.999066 0.295,-1.702149c0.079158,-0.703083 0.229117,-1.588083 0.334333,-1.966666c0.223217,-0.803383 0.453316,-2.149566 0.546241,-3.195832c0.035892,-0.405625 0.146025,-0.980875 0.244358,-1.278333c0.239442,-0.724716 0.269925,-0.901716 0.435616,-2.556665c0.0826,-0.821575 0.243375,-1.759182 0.379566,-2.212499c0.1298,-0.432666 0.266975,-1.096416 0.30385,-1.474999c0.154875,-1.574808 0.361375,-2.81774 0.547716,-3.28974c0.11505,-0.293033 0.236983,-0.942033 0.291558,-1.556616c0.052117,-0.579183 0.167167,-1.407641 0.25665,-1.840307c0.295,-1.427799 0.311717,-1.283741 -0.17405,-1.469099c-0.700133,-0.267467 -5.693006,-0.190275 -5.96588,0.092433c-0.164217,0.170117 -0.205025,0.447416 -0.30385,2.064999c-0.062933,1.027583 -0.158808,2.039924 -0.213383,2.249866c-0.054575,0.209942 -0.140125,0.619008 -0.190275,0.909583c-0.05015,0.290575 -0.132258,0.767983 -0.1829,1.061016c-0.050642,0.293033 -0.140125,1.255224 -0.199125,2.138749c-0.096858,1.446974 -0.169133,1.931266 -0.509858,3.424948c-0.055558,0.243375 -0.139633,1.172624 -0.187325,2.064999c-0.101283,1.895374 -0.248292,3.39299 -0.349083,3.556223c-0.101775,0.164708 -0.215842,1.179999 -0.42775,3.818773c-0.224692,2.793157 -0.270417,3.21599 -0.362358,3.364965c-0.102758,0.166183 -0.314175,-0.477408 -0.323517,-0.984316c-0.003933,-0.232067 -0.095875,-0.595408 -0.204042,-0.807316c-0.108167,-0.211908 -0.196667,-0.567383 -0.196667,-0.789125c0,-0.222233 -0.049658,-0.496583 -0.110133,-0.609666c-0.060475,-0.113083 -0.169625,-0.943016 -0.242392,-1.843749c-0.142092,-1.763116 -0.340233,-3.062099 -0.562466,-3.689957c-0.077192,-0.216333 -0.169625,-0.747333 -0.206008,-1.179999c-0.150942,-1.798024 -0.2832,-2.655982 -0.497075,-3.228773c-0.124392,-0.33335 -0.256158,-0.960225 -0.293033,-1.392891c-0.1121,-1.326024 -0.354491,-2.930824 -0.499533,-3.31039c-0.075717,-0.198142 -0.184375,-0.817641 -0.240917,-1.376666c-0.163233,-1.597424 -0.3717,-2.851665 -0.541816,-3.258273c-0.086533,-0.206008 -0.184375,-0.72865 -0.217808,-1.161316c-0.042775,-0.558533 -0.115542,-0.857466 -0.249275,-1.027583l-0.1888,-0.239933l-2.333941,0c-2.841832,0 -2.616649,-0.1121 -2.915582,1.448941c-0.125375,0.6549 -0.277792,1.284233 -0.338758,1.398299c-0.061458,0.114558 -0.178475,0.814691 -0.260092,1.556124c-0.082108,0.741433 -0.258125,1.768524 -0.391858,2.282807c-0.133733,0.513791 -0.305817,1.532033 -0.383008,2.262649c-0.077192,0.730125 -0.23305,1.615124 -0.346133,1.966666c-0.113575,0.35105 -0.269433,1.140666 -0.346625,1.753774c-0.193225,1.537933 -0.414966,2.777915 -0.58115,3.248932c-0.077192,0.217808 -0.207975,1.011358 -0.290575,1.763116c-0.0826,0.751758 -0.192733,1.477949 -0.244358,1.613649c-0.127342,0.335808 -0.373175,1.832441 -0.4484,2.731699c-0.054575,0.650966 -0.105708,1.051183 -0.315158,2.456857l-0.051133,0.343183l-0.2124,-0.289592c-0.234033,-0.319092 -0.451841,-0.948425 -0.461183,-1.330449c-0.00295,-0.135208 -0.07375,-0.422833 -0.156842,-0.639166c-0.10325,-0.269925 -0.210433,-1.334874 -0.340725,-3.392498c-0.198633,-3.128473 -0.256158,-3.73224 -0.512808,-5.359164c-0.08555,-0.540833 -0.20355,-1.631841 -0.263042,-2.424899c-0.059492,-0.793058 -0.19765,-1.943557 -0.3068,-2.556665c-0.280742,-1.580216 -0.359408,-2.201682 -0.483308,-3.819265c-0.059983,-0.784208 -0.216825,-1.956341 -0.348591,-2.604849c-0.132258,-0.648508 -0.239933,-1.358966 -0.239933,-1.579233c0,-0.834358 0.010817,-0.831408 -3.273515,-0.826491c-2.68794,0.003933 -2.896407,0.017208 -3.248932,0.203058" id="path1"/>
  </g>
 </g>
</svg>